<svg width="36" height="36" viewBox="0 0 36 36" fill="none" xmlns="http://www.w3.org/2000/svg">
<g clip-path="url(#clip0)">
<path d="M18.964 30.1289C19.3523 30.1289 19.6671 29.8141 19.6671 29.4258C19.6671 29.0375 19.3523 28.7227 18.964 28.7227C18.5757 28.7227 18.2609 29.0375 18.2609 29.4258C18.2609 29.8141 18.5757 30.1289 18.964 30.1289Z" fill="black"/>
<path d="M35.7236 8.01844C35.5464 7.59938 35.2934 7.22391 34.9699 6.90117C34.6471 6.57773 34.2716 6.32461 33.8526 6.14742C33.4195 5.96391 32.9589 5.87109 32.4843 5.87109H3.51562C3.04102 5.87109 2.58047 5.96391 2.14734 6.14742C1.72828 6.32461 1.35281 6.57773 1.03008 6.90047C0.706641 7.22391 0.453516 7.59938 0.276328 8.01844C0.0928125 8.45156 0 8.91211 0 9.38672V26.6133C0 27.0879 0.0928125 27.5484 0.276328 27.9816C0.453516 28.4006 0.706641 28.7761 1.03008 29.0988C1.35281 29.4223 1.72828 29.6754 2.14734 29.8526C2.58047 30.0361 3.04102 30.1289 3.51562 30.1289H15.7999C16.188 30.1289 16.503 29.8132 16.503 29.4258C16.503 29.0384 16.188 28.7227 15.7999 28.7227H3.51562C2.35477 28.7205 1.40836 27.7741 1.40625 26.6133V10.0898H34.5938V26.6133C34.5916 27.7741 33.6452 28.7205 32.4844 28.7227H22.128C21.7406 28.7227 21.4249 29.0384 21.4249 29.4258C21.4249 29.8132 21.7406 30.1289 22.128 30.1289H32.4844C32.959 30.1289 33.4195 30.0361 33.8527 29.8526C34.2717 29.6754 34.6472 29.4223 34.9699 29.0988C35.2934 28.7761 35.5465 28.4006 35.7237 27.9816C35.9072 27.5484 36.0001 27.0879 36.0001 26.6133V9.38672C36 8.91211 35.9072 8.45156 35.7236 8.01844ZM3.51562 7.27734H32.4844C33.3988 7.27896 34.1798 7.86677 34.4713 8.68359H1.52866C1.82018 7.86677 2.60114 7.27896 3.51562 7.27734Z" fill="black"/>
<path d="M27.7734 24.4688C28.1618 24.4688 28.4766 24.154 28.4766 23.7656C28.4766 23.3773 28.1618 23.0625 27.7734 23.0625C27.3851 23.0625 27.0703 23.3773 27.0703 23.7656C27.0703 24.154 27.3851 24.4688 27.7734 24.4688Z" fill="black"/>
<path d="M24.6094 24.4688C24.9977 24.4688 25.3125 24.154 25.3125 23.7656C25.3125 23.3773 24.9977 23.0625 24.6094 23.0625C24.221 23.0625 23.9062 23.3773 23.9062 23.7656C23.9062 24.154 24.221 24.4688 24.6094 24.4688Z" fill="black"/>
<path d="M18.2812 24.4688C18.6696 24.4688 18.9844 24.154 18.9844 23.7656C18.9844 23.3773 18.6696 23.0625 18.2812 23.0625C17.8929 23.0625 17.5781 23.3773 17.5781 23.7656C17.5781 24.154 17.8929 24.4688 18.2812 24.4688Z" fill="black"/>
<path d="M21.4453 24.4688C21.8336 24.4688 22.1484 24.154 22.1484 23.7656C22.1484 23.3773 21.8336 23.0625 21.4453 23.0625C21.057 23.0625 20.7422 23.3773 20.7422 23.7656C20.7422 24.154 21.057 24.4688 21.4453 24.4688Z" fill="black"/>
<path d="M18.2812 20.5312H23.0625C23.4499 20.5312 23.7656 20.2155 23.7656 19.8281C23.7656 19.4407 23.4499 19.125 23.0625 19.125H18.2812C17.8938 19.125 17.5781 19.4407 17.5781 19.8281C17.5781 20.2155 17.8938 20.5312 18.2812 20.5312Z" fill="black"/>
<path d="M18.2812 17.7188H27.7734C28.1609 17.7188 28.4766 17.403 28.4766 17.0156C28.4766 16.6282 28.1609 16.3125 27.7734 16.3125H18.2812C17.8938 16.3125 17.5781 16.6282 17.5781 17.0156C17.5781 17.403 17.8938 17.7188 18.2812 17.7188Z" fill="black"/>
<path d="M18.2812 14.9062H27.7734C28.1609 14.9062 28.4766 14.5905 28.4766 14.2031C28.4766 13.8157 28.1609 13.5 27.7734 13.5H18.2812C17.8938 13.5 17.5781 13.8157 17.5781 14.2031C17.5781 14.5905 17.8938 14.9062 18.2812 14.9062Z" fill="black"/>
<path d="M3.86719 23.2734C3.86719 23.6618 4.18198 23.9766 4.57031 23.9766H13.0078C13.3961 23.9766 13.7109 23.6618 13.7109 23.2734C13.7109 21.3479 12.5988 19.678 10.9837 18.8698C11.5807 18.2939 11.9531 17.4867 11.9531 16.5938C11.9531 14.8491 10.5337 13.4297 8.78906 13.4297C7.0444 13.4297 5.625 14.8491 5.625 16.5938C5.625 17.4867 5.99745 18.2939 6.59447 18.8698C4.97932 19.678 3.86719 21.3479 3.86719 23.2734ZM7.03125 16.5938C7.03125 15.6245 7.8198 14.8359 8.78906 14.8359C9.75832 14.8359 10.5469 15.6245 10.5469 16.5938C10.5469 17.563 9.75832 18.3516 8.78906 18.3516C7.8198 18.3516 7.03125 17.563 7.03125 16.5938ZM8.78906 19.7578C10.4868 19.7578 11.9074 20.9676 12.2341 22.5703H5.34403C5.67077 20.9676 7.0913 19.7578 8.78906 19.7578Z" fill="black"/>
</g>
<defs>
<clipPath id="clip0">
<rect width="36" height="36" fill="white"/>
</clipPath>
</defs>
</svg>
