<svg width="33" height="33" viewBox="0 0 33 33" fill="none" xmlns="http://www.w3.org/2000/svg">
<path d="M20.3027 5.86523H12.5684C12.0344 5.86523 11.6016 6.2981 11.6016 6.83203C11.6016 7.36596 12.0344 7.79883 12.5684 7.79883H20.3027C20.8367 7.79883 21.2695 7.36596 21.2695 6.83203C21.2695 6.2981 20.8367 5.86523 20.3027 5.86523Z" fill="black"/>
<path d="M20.3027 9.73242H12.5684C12.0344 9.73242 11.6016 10.1653 11.6016 10.6992C11.6016 11.2331 12.0344 11.666 12.5684 11.666H20.3027C20.8367 11.666 21.2695 11.2331 21.2695 10.6992C21.2695 10.1653 20.8367 9.73242 20.3027 9.73242Z" fill="black"/>
<path d="M20.3027 13.5996H4.83398C4.30005 13.5996 3.86719 14.0325 3.86719 14.5664C3.86719 15.1003 4.30005 15.5332 4.83398 15.5332H20.3027C20.8367 15.5332 21.2695 15.1003 21.2695 14.5664C21.2695 14.0325 20.8367 13.5996 20.3027 13.5996Z" fill="black"/>
<path d="M16.7979 17.4668H4.83398C4.30005 17.4668 3.86719 17.8997 3.86719 18.4336C3.86719 18.9675 4.30005 19.4004 4.83398 19.4004H16.7979C17.3318 19.4004 17.7647 18.9675 17.7647 18.4336C17.7647 17.8997 17.3318 17.4668 16.7979 17.4668Z" fill="black"/>
<path d="M25.2012 17.4668V2.90039C25.2012 1.29731 23.8415 0 22.2363 0H8.70104C8.45593 0 8.20379 0.0969375 8.01475 0.286043L0.280371 8.08487C0.102674 8.26399 0 8.5131 0 8.76562V30.0996C0 31.6989 1.30112 33 2.90039 33C4.94007 33 5.61735 33 5.61445 33C8.57948 33 14.4139 33 25.2012 33C29.4701 33 33 29.4851 33 25.2012C33 20.9364 29.5015 17.4668 25.2012 17.4668ZM7.73438 3.31463V7.79883H3.28724L7.73438 3.31463ZM2.90039 31.0664C2.3673 31.0664 1.93359 30.6327 1.93359 30.0996V9.73242H8.70117C9.2351 9.73242 9.66797 9.29955 9.66797 8.76562V1.93359H22.2363C22.7857 1.93359 23.2676 2.38535 23.2676 2.90039V17.7075C21.2155 18.2286 19.487 19.5589 18.4493 21.334H4.83398C4.30005 21.334 3.86719 21.7669 3.86719 22.3008C3.86719 22.8347 4.30005 23.2676 4.83398 23.2676H17.6491C17.4881 23.8858 17.4023 24.5338 17.4023 25.2012H4.83398C4.30005 25.2012 3.86719 25.634 3.86719 26.168C3.86719 26.7019 4.30005 27.1348 4.83398 27.1348H17.6476C18.0384 28.6466 18.8833 30.0093 20.0892 31.0664H2.90039ZM25.2012 31.0664C22.0219 31.0664 19.3359 28.3805 19.3359 25.2012C19.3359 22.0026 21.967 19.4004 25.2012 19.4004C28.4353 19.4004 31.0664 22.0026 31.0664 25.2012C31.0664 28.3805 28.3805 31.0664 25.2012 31.0664Z" fill="black"/>
<path d="M28.8553 23.5564C28.4809 23.1758 27.8687 23.1707 27.488 23.5451L24.2289 26.7509L22.9086 25.4732C22.5249 25.1019 21.9129 25.1119 21.5416 25.4956C21.1703 25.8793 21.1803 26.4914 21.564 26.8627L23.5621 28.7963C23.9389 29.161 24.5381 29.1588 24.9123 28.7908L28.844 24.9236C29.2247 24.5492 29.2297 23.9371 28.8553 23.5564Z" fill="black"/>
</svg>
