<svg width="34" height="36" xmlns="http://www.w3.org/2000/svg">
 <!-- Created with SVG Editor - http://github.com/mzalive/SVG Editor/ -->

 <g>
  <title>background</title>
  <rect fill="#fff" id="canvas_background" height="38" width="36" y="-1" x="-1"/>
  <g display="none" overflow="visible" y="0" x="0" height="100%" width="100%" id="canvasGrid">
   <rect fill="url(#gridpattern)" stroke-width="0" y="0" x="0" height="100%" width="100%"/>
  </g>
 </g>
 <g>
  <title>Layer 1</title>
  <!-- Created with SVG Editor - http://github.com/mzalive/SVG Editor/ -->
  <g stroke="null" id="svg_15">
   <g stroke="null" transform="matrix(0.15633465278235217,0,0,0.12320958068381883,-7.650401862663728,-1.2445305351123483) " id="svg_12">
    <title stroke="null" transform="translate(-8.080185890197754,0) translate(12.120279312133789,-44.44102478027344) translate(-2484.657470703125,-1611.9971923828125) translate(2483.6650390625,0) translate(0,1617.044921875) ">background</title>
    <rect stroke="null" x="2.047662" y="-40.393295" width="307" height="404" id="svg_10" fill="#fff"/>
    <g stroke="null" id="svg_9" display="none">
     <rect stroke="null" id="svg_13" width="586" height="400" x="4.047662" y="-38.393295" stroke-width="0" fill="url(#gridpattern)"/>
    </g>
   </g>
   <g stroke="null" transform="matrix(0.15633465278235217,0,0,0.12320958068381883,-7.650401862663728,-1.2445305351123483) " id="svg_14">
    <title stroke="null" transform="translate(-8.080185890197754,0) translate(12.120279312133789,-44.44102478027344) translate(-2484.657470703125,-1611.9971923828125) translate(2483.6650390625,0) translate(0,1617.044921875) ">Layer 1</title>
    <g stroke="null" id="svg_7">
     <path stroke="null" d="m201.867432,37.384655l-113.07157,0c-7.59216,0 -13.77458,6.73156 -13.77458,14.99078l0,214.45999c0,8.27222 6.18242,14.99333 13.77458,14.99333l138.50263,0c7.59868,0 13.77553,-6.72111 13.77553,-14.99333l0,-183.09844l-39.20659,-46.35233zm3.25152,22.43178l17.18432,20.32133l-17.18432,0l0,-20.32133zm24.38596,207.0201c0,1.32 -0.99326,2.40444 -2.21247,2.40444l-138.49658,0c-1.2174,0 -2.20517,-1.08444 -2.20517,-2.40444l0,-214.4611c0,-1.32356 0.98777,-2.39622 2.20517,-2.39622l104.74793,0l0,36.45522c0,3.471 2.59827,6.28477 5.79017,6.28477l30.17095,0l0,174.11733zm-122.50565,-162.50033l98.24325,0c2.39306,0 4.33421,2.112 4.33421,4.716c0,2.604 -1.94115,4.71612 -4.33421,4.71612l-98.24325,0c-2.39275,0 -4.33433,-2.11212 -4.33433,-4.71612c0,-2.60344 1.94158,-4.716 4.33433,-4.716zm102.57746,36.408c0,2.60345 -1.94115,4.71611 -4.33421,4.71611l-98.24325,0c-2.39275,0 -4.33433,-2.11211 -4.33433,-4.71611c0,-2.604 1.94158,-4.71611 4.33433,-4.71611l98.24325,0c2.39306,0 4.33421,2.11267 4.33421,4.71611zm0,30.65456c0,2.60333 -1.94115,4.71555 -4.33421,4.71555l-98.24325,0c-2.39275,0 -4.33433,-2.11222 -4.33433,-4.71555c0,-2.60445 1.94158,-4.71667 4.33433,-4.71667l98.24325,0c2.39306,0 4.33421,2.11222 4.33421,4.71667zm0,31.17555c0,2.60444 -1.94115,4.71667 -4.33421,4.71667l-98.24325,0c-2.39275,0 -4.33433,-2.11223 -4.33433,-4.71667c0,-2.60333 1.94158,-4.71556 4.33433,-4.71556l98.24325,0c2.39306,0 4.33421,2.11223 4.33421,4.71556z" fill="black" id="svg_8"/>
    </g>
   </g>
  </g>
 </g>
</svg>