<svg width="40" height="22" viewBox="0 0 40 22" fill="none" xmlns="http://www.w3.org/2000/svg">
<path d="M30.1426 3.05176e-05H3.97093C2.21364 3.05176e-05 0.782654 0.605867 0.782654 1.3492V20.6506C0.782654 21.3951 2.21364 22 3.97093 22H36.0289C37.7877 22 39.2174 21.3951 39.2174 20.6506V4.17174L30.1426 3.05176e-05ZM30.8952 2.01889L34.8727 3.84781H30.8952V2.01889ZM36.5396 20.6507C36.5396 20.7695 36.3097 20.8671 36.0275 20.8671H3.97093C3.68915 20.8671 3.46052 20.7695 3.46052 20.6507V1.3492C3.46052 1.23008 3.68915 1.13354 3.97093 1.13354H28.216V4.41451C28.216 4.7269 28.8174 4.98014 29.5562 4.98014H36.5396V20.6507ZM8.18431 6.02567H30.9238C31.4777 6.02567 31.927 6.21575 31.927 6.45011C31.927 6.68447 31.4777 6.87456 30.9238 6.87456H8.18431C7.63048 6.87456 7.18108 6.68447 7.18108 6.45011C7.18108 6.2158 7.63048 6.02567 8.18431 6.02567ZM31.927 9.30239C31.927 9.5367 31.4777 9.72684 30.9238 9.72684H8.18431C7.63048 9.72684 7.18108 9.53675 7.18108 9.30239C7.18108 9.06803 7.63048 8.87794 8.18431 8.87794H30.9238C31.4777 8.87794 31.927 9.06808 31.927 9.30239ZM31.927 12.0613C31.927 12.2956 31.4777 12.4857 30.9238 12.4857H8.18431C7.63048 12.4857 7.18108 12.2956 7.18108 12.0613C7.18108 11.8269 7.63048 11.6368 8.18431 11.6368H30.9238C31.4777 11.6368 31.927 11.8269 31.927 12.0613ZM31.927 14.8671C31.927 15.1015 31.4777 15.2916 30.9238 15.2916H8.18431C7.63048 15.2916 7.18108 15.1015 7.18108 14.8671C7.18108 14.6328 7.63048 14.4427 8.18431 14.4427H30.9238C31.4777 14.4427 31.927 14.6328 31.927 14.8671Z" fill="black"/>
</svg>
