<?xml version="1.0" standalone="no"?>
<!DOCTYPE svg PUBLIC "-//W3C//DTD SVG 1.1//EN" "http://www.w3.org/Graphics/SVG/1.1/DTD/svg11.dtd" >
<svg>
<metadata>
Created by FontForge 20090914 at Tue Jul 28 14:22:08 2020
 By www-data
</metadata>
<defs>
<font id="Tele2TextSansWebSHORT-Regular" horiz-adv-x="1044" >
  <font-face 
    font-family="Tele2 TextSans Web SHORT"
    font-weight="400"
    font-stretch="normal"
    units-per-em="2048"
    panose-1="2 0 0 0 0 0 0 0 0 0"
    ascent="1638"
    descent="-410"
    x-height="1030"
    cap-height="1536"
    bbox="-88 -532.001 1935 1876"
    underline-thickness="102"
    underline-position="-102"
    unicode-range="U+000D-U+25FC"
  />
<missing-glyph horiz-adv-x="748" 
d="M68 0v1365h544v-1365h-544zM136 68h408v1229h-408v-1229z" />
    <glyph glyph-name=".notdef" horiz-adv-x="748" 
d="M68 0v1365h544v-1365h-544zM136 68h408v1229h-408v-1229z" />
    <glyph glyph-name="glyph1" horiz-adv-x="0" 
 />
    <glyph glyph-name="glyph1" horiz-adv-x="0" 
 />
    <glyph glyph-name="uni000D" unicode="&#xd;" horiz-adv-x="479" 
 />
    <glyph glyph-name="space" unicode=" " horiz-adv-x="479" 
 />
    <glyph glyph-name="exclam" unicode="!" horiz-adv-x="542" 
d="M133 115c0 38 13.333 70.333 40 97s59.667 40 99 40c36.667 0 68.834 -13.333 96.501 -40s41.5 -59 41.5 -97c0 -39.333 -13.833 -72.5 -41.5 -99.5s-59.834 -40.5 -96.501 -40.5c-39.333 0 -72.333 13.333 -99 40s-40 60 -40 100zM145 1536h248l-49 -1085h-151z" />
    <glyph glyph-name="quotedbl" unicode="&#x22;" horiz-adv-x="833" 
d="M143 1536h224l-21 -483h-184zM467 1536h223l-20 -483h-185z" />
    <glyph glyph-name="numbersign" unicode="#" horiz-adv-x="1478" 
d="M68 428l43 172h239l78 289h-240l43 172h242l127 475h195l-127 -475h303l127 475h192l-127 -475h242l-43 -172h-244l-78 -289h246l-43 -172h-248l-114 -428h-193l115 428h-303l-115 -428h-195l115 428h-237zM545 600h303l78 289h-303z" />
    <glyph glyph-name="dollar" unicode="$" 
d="M76 72l0.00195312 213.003c65.333 -44 130.833 -75.167 196.5 -93.5s127.167 -28.833 184.5 -31.5v526l-13 6c-50.667 23.333 -97.667 48.333 -141 75s-80.833 57.334 -112.5 92.001s-56.667 75.334 -75 122.001s-27.5 102.667 -27.5 168
c0 64 9.83301 119.167 29.5 165.5s46.667 85.666 81 117.999s73.666 57.666 117.999 75.999s91.166 31.5 140.499 39.5v158h155v-150c58.667 -2.66699 114.334 -8.33398 167.001 -17.001s94 -21.334 124 -38.001v-196c-35.333 22 -78.333 38.667 -129 50
s-104.667 18.333 -162 21v-530c48 -23.333 93.5 -48 136.5 -74s80.833 -56 113.5 -90s58.667 -73.5 78 -118.5s29 -99.167 29 -162.5c0 -50.667 -6.83301 -98.834 -20.5 -144.501s-34.834 -86.834 -63.501 -123.501s-65.5 -67.667 -110.5 -93
s-99.167 -42.666 -162.5 -51.999v-168h-155v160c-54.667 2.66699 -116.5 9.66699 -185.5 21s-134.167 35 -195.5 71zM305.002 1149c0 -56 14.333 -100.669 43 -134.002s65 -63 109 -89v432c-42 -13.333 -77.833 -36.166 -107.5 -68.499s-44.5 -79.166 -44.5 -140.499z
M612.002 176.001c42 13.333 75.833 37.167 101.5 71.5s38.5 84.166 38.5 149.499c0 52 -12.667 94.333 -38 127s-59.333 61.334 -102 86.001v-434z" />
    <glyph glyph-name="percent" unicode="%" horiz-adv-x="1759" 
d="M84 1184c0 57.333 9.5 108.499 28.5 153.499s45 83.5 78 115.5s72 56.167 117 72.5s93.5 24.5 145.5 24.5c50.667 0 98.5 -8.16699 143.5 -24.5s84.167 -40.166 117.5 -71.499s59.5 -69.5 78.5 -114.5s28.5 -96.167 28.5 -153.5s-9.5 -108.5 -28.5 -153.5
s-45.167 -83 -78.5 -114s-72.5 -54.667 -117.5 -71s-92.833 -24.5 -143.5 -24.5c-52 0 -100.5 7.83301 -145.5 23.5s-84 39 -117 70s-59 69 -78 114s-28.5 96.167 -28.5 153.5zM274 1184c0 -69.333 17.5 -120.835 52.5 -154.502s77.167 -50.5 126.5 -50.5
s91.333 16.333 126 49s52 85.334 52 158.001c0 70.667 -17.833 122.834 -53.5 156.501s-77.167 50.5 -124.5 50.5c-49.333 0 -91.5 -17.167 -126.5 -51.5s-52.5 -86.833 -52.5 -157.5zM279 -0.00292969l972 1536h215l-974 -1536h-213zM938 341.997
c0 57.333 9.5 108.501 28.5 153.501s45 83.5 78 115.5s72 56.333 117 73s93.5 25 145.5 25s100.5 -8.33301 145.5 -25s83.833 -40.667 116.5 -72s58.5 -69.5 77.5 -114.5s28.5 -96.167 28.5 -153.5c0 -56 -9.5 -106.833 -28.5 -152.5s-44.833 -83.834 -77.5 -114.501
s-71.5 -54.167 -116.5 -70.5s-93.5 -24.5 -145.5 -24.5s-100.5 8.16699 -145.5 24.5s-84 39.833 -117 70.5s-59 68.5 -78 113.5s-28.5 95.5 -28.5 151.5zM1128 341.998c0 -68 17.5 -118.834 52.5 -152.501s77.167 -50.5 126.5 -50.5c48 0 89.667 16.5 125 49.5
s53 84.833 53 155.5s-17.833 122.834 -53.5 156.501s-77.167 50.5 -124.5 50.5c-49.333 0 -91.5 -17 -126.5 -51s-52.5 -86.667 -52.5 -158z" />
    <glyph glyph-name="ampersand" unicode="&#x26;" horiz-adv-x="1402" 
d="M92 375c0 49.333 7.50195 94.0039 22.502 134.004s35.5 76.5 61.5 109.5s56 63.167 90 90.5s70.333 53 109 77c-48 60 -87.333 120.833 -118 182.5s-46 131.5 -46 209.5c0 53.333 7.83301 103.166 23.5 149.499s39.5 86.166 71.5 119.499s73 59.833 123 79.5
s109 29.5 177 29.5s126.667 -8.83301 176 -26.5s89.666 -41.5 120.999 -71.5s54.166 -65.167 68.499 -105.5s21.5 -83.5 21.5 -129.5c0 -49.333 -7.83301 -93.833 -23.5 -133.5s-38.167 -77.5 -67.5 -113.5s-64.833 -70.833 -106.5 -104.5s-89.167 -67.5 -142.5 -101.5
l27 -29c106.667 -113.333 220.667 -223 342 -329c22 45.333 39.833 95.166 53.5 149.499s21.834 114.166 24.501 179.499h180c-6.66699 -86 -19.667 -166.5 -39 -241.5s-46.666 -143.167 -81.999 -204.5c31.333 -27.333 63.5 -54 96.5 -80l100.5 -80l-109 -155l-102 79.5
l-103 83.5c-54.667 -52 -118.834 -92.167 -192.501 -120.5s-158.834 -42.5 -255.501 -42.5c-154 0 -276.167 33.667 -366.5 101s-135.5 165.333 -135.5 294zM303.002 391.004c0 -78 27 -138.166 81 -180.499s128 -63.5 222 -63.5c118.667 0 219 37 301 111
c-75.333 65.333 -148 131.5 -218 198.5s-135.667 133.167 -197 198.5l-9 9c-52 -34 -95 -72.333 -129 -115s-51 -95.334 -51 -158.001zM418.002 1188c0 -53.333 11.5 -103.833 34.5 -151.5s54.5 -95.5 94.5 -143.5c80.667 56 140.667 107.833 180 155.5
s59 102.834 59 165.501c0 57.333 -17.667 101.166 -53 131.499s-78.333 45.5 -129 45.5c-52 0 -96 -16.167 -132 -48.5s-54 -83.833 -54 -154.5z" />
    <glyph glyph-name="quotesingle" unicode="'" horiz-adv-x="509" 
d="M143 1536h224l-21 -483h-184z" />
    <glyph glyph-name="parenleft" unicode="(" horiz-adv-x="720" 
d="M82 621c0 177.333 19.833 331.831 59.5 463.498s89.834 242.834 150.501 333.501s127.5 162 200.5 214s142.167 87 207.5 105v-158c-49.333 -19.333 -98.5 -52.5 -147.5 -99.5s-93 -110.167 -132 -189.5s-70.667 -174.166 -95 -284.499s-36.5 -238.5 -36.5 -384.5
s12.167 -274 36.5 -384s56 -204 95 -282s83.167 -140.5 132.5 -187.5s98.333 -80.167 147 -99.5v-157c-65.333 18 -134.5 52.5 -207.5 103.5s-139.833 121.5 -200.5 211.5s-110.834 200.5 -150.501 331.5s-59.5 285.5 -59.5 463.5z" />
    <glyph glyph-name="parenright" unicode=")" horiz-adv-x="720" 
d="M20 -332c49.333 19.333 98.667 52.498 148 99.498s93.333 109.5 132 187.5s70.334 172.667 95.001 284s37 240 37 386c0 144.667 -12.333 272.334 -37 383.001s-56.334 205.167 -95.001 283.5s-82.667 141 -132 188s-98.666 80.167 -147.999 99.5v158
c65.333 -18 134.666 -52.667 207.999 -104s140.333 -122.333 201 -213s110.834 -201.5 150.501 -332.5s59.5 -285.167 59.5 -462.5c0 -178.667 -19.833 -334 -59.5 -466s-89.834 -243 -150.501 -333s-127.5 -160.667 -200.5 -212s-142.5 -85.666 -208.5 -102.999v157z" />
    <glyph glyph-name="asterisk" unicode="*" horiz-adv-x="882" 
d="M88 1096l248 98l-244 94l84 148l207 -144l-35 264h195l-33 -266l203 146l80 -148l-242 -96l244 -96l-82 -152l-203 146l33 -265h-197l37 265l-213 -146z" />
    <glyph glyph-name="plus" unicode="+" horiz-adv-x="1097" 
d="M123 645v162h344v360h166v-360h342v-162h-342v-377h-166v377h-344z" />
    <glyph glyph-name="comma" unicode="," horiz-adv-x="522" 
d="M123 115c0 38 13.332 70.334 39.999 97.001s59.667 40 99 40c28.667 0 53.334 -6.16699 74.001 -18.5s36 -29 46 -50s15.333 -45.167 16 -72.5s-4.33301 -56 -15 -86l-107 -299h-122l79 254c-35.333 5.33301 -62.5 20.166 -81.5 44.499s-28.5 54.5 -28.5 90.5z" />
    <glyph glyph-name="hyphen" unicode="-" horiz-adv-x="778" 
d="M88 516v150h602v-150h-602z" />
    <glyph glyph-name="period" unicode="." horiz-adv-x="522" 
d="M123 115c0 38 13.333 70.333 40 97s59.667 40 99 40c36.667 0 68.667 -13.333 96 -40s41 -59 41 -97c0 -39.333 -13.667 -72.5 -41 -99.5s-59.333 -40.5 -96 -40.5c-39.333 0 -72.333 13.333 -99 40s-40 60 -40 100z" />
    <glyph glyph-name="slash" unicode="/" horiz-adv-x="964" 
d="M41 -492l696 2182h187l-697 -2182h-186z" />
    <glyph glyph-name="zero" unicode="0" horiz-adv-x="1193" 
d="M86 764c0 267.333 42.6689 466.166 128.002 596.499s212.666 195.5 381.999 195.5s297 -64.833 383 -194.5s129 -328.167 129 -595.5s-42.667 -465.166 -128 -593.499s-213.333 -192.5 -384 -192.5s-298.334 63.667 -383.001 191s-127 325 -127 593zM303.002 764
c0 -90 4.83301 -171.502 14.5 -244.502s26 -135.833 49 -188.5s53 -93.334 90 -122.001s83.5 -43 139.5 -43c54.667 0 101.167 14.333 139.5 43s68.666 69.334 90.999 122.001s38.666 115.834 48.999 189.501s15.5 155.5 15.5 245.5s-5.16699 171.833 -15.5 245.5
s-26.666 137.167 -48.999 190.5s-52.666 94.666 -90.999 123.999s-84.833 44 -139.5 44c-56 0 -102.5 -14.667 -139.5 -44s-67 -70.666 -90 -123.999s-39.333 -117.166 -49 -191.499s-14.5 -156.5 -14.5 -246.5z" />
    <glyph glyph-name="one" unicode="1" horiz-adv-x="716" 
d="M35 1194v188l401 168h105v-1550h-207v1319z" />
    <glyph glyph-name="two" unicode="2" horiz-adv-x="1026" 
d="M68 0l-0.00292969 165.998l440 553c61.333 78 109.166 151 143.499 219s51.5 137 51.5 207c0 154 -77.333 231 -232 231c-57.333 0 -114.666 -8.5 -171.999 -25.5s-114.666 -49.5 -171.999 -97.5v197c22 18 48 33.833 78 47.5s62 24.834 96 33.501s68.833 15 104.5 19
s69.834 6 102.501 6c139.333 0 242.833 -34.667 310.5 -104s101.5 -167 101.5 -293c0 -49.333 -6.16699 -95.833 -18.5 -139.5s-29.833 -87 -52.5 -130s-49.667 -86.667 -81 -131s-66.666 -91.166 -105.999 -140.499l-349 -432h664v-186h-909z" />
    <glyph glyph-name="three" unicode="3" horiz-adv-x="1017" 
d="M74 55l-0.00292969 196.999c54.667 -31.333 107.834 -54.5 159.501 -69.5s113.834 -22.5 186.501 -22.5c94 0 167.667 25.833 221 77.5s80 124.167 80 217.5c0 87.333 -24.833 155.833 -74.5 205.5s-121.834 74.5 -216.501 74.5c-19.333 0 -44 -1 -74 -3s-60 -7 -90 -15
v178c72.667 8 134.167 20.167 184.5 36.5s91.666 36.833 123.999 61.5s56 52 71 82s22.5 62 22.5 96c0 64 -19.167 114.167 -57.5 150.5s-92.166 54.5 -161.499 54.5c-66.667 0 -129.5 -9.83301 -188.5 -29.5s-110.167 -52.834 -153.5 -99.501v197
c42 38 96.5 66.167 163.5 84.5s133.167 27.5 198.5 27.5c74 0 136.833 -9.16699 188.5 -27.5s94.334 -42.833 128.001 -73.5s58.334 -66.5 74.001 -107.5s23.5 -84.5 23.5 -130.5c0 -52 -8.5 -98.167 -25.5 -138.5s-39.5 -75.166 -67.5 -104.499
s-60.167 -53.666 -96.5 -72.999s-73.5 -33.666 -111.5 -42.999v-10c116 -13.333 204.333 -55.333 265 -126s91 -159 91 -265c0 -64 -8.5 -124.833 -25.5 -182.5s-45.667 -108.334 -86 -152.001s-93 -78.334 -158 -104.001s-144.5 -38.5 -238.5 -38.5
c-65.333 0 -129 6.33301 -191 19s-117 31.334 -165 56.001z" />
    <glyph glyph-name="four" unicode="4" horiz-adv-x="1114" 
d="M16 377v137l664 1036h194v-1007h193v-166h-193v-397h-207v397h-651zM223 543h444v669h-12z" />
    <glyph glyph-name="five" unicode="5" horiz-adv-x="1032" 
d="M57 55l-0.000976562 197c54.667 -31.333 112 -54.5 172 -69.5s118.667 -22.5 176 -22.5c117.333 0 203.333 28.333 258 85s82 135.334 82 236.001c0 98 -32.667 172 -98 222s-156 75 -272 75c-30 0 -59.333 -1.33301 -88 -4s-54.667 -5.33398 -78 -8.00098l-76 -12
l55 782h709v-186h-533l-30 -400c18 1.33301 36.167 2.33301 54.5 3s34.833 1 49.5 1c84.667 0 159.5 -11.167 224.5 -33.5s119.667 -54 164 -95s78 -90.833 101 -149.5s34.5 -123.667 34.5 -195c0 -68 -10.5 -132 -31.5 -192s-53.667 -113.333 -98 -160
s-100.666 -83.167 -168.999 -109.5s-148.833 -39.5 -241.5 -39.5c-58.667 0 -122.167 6 -190.5 18s-126.5 31 -174.5 57z" />
    <glyph glyph-name="six" unicode="6" horiz-adv-x="1193" 
d="M92 643c0 169.333 15.667 312.001 47 428.001s76.333 209.833 135 281.5s129 123.5 211 155.5s173.667 48 275 48c48 0 93 -3 135 -9s81.667 -16.333 119 -31v-187c-34 16.667 -71.5 28.667 -112.5 36s-80.167 11 -117.5 11c-316.667 0 -481 -181.667 -493 -545h20
c26 46.667 66 88.167 120 124.5s126 54.5 216 54.5c70.667 0 134.167 -12.333 190.5 -37s103.833 -59.5 142.5 -104.5s68.667 -99 90 -162s32 -132.5 32 -208.5c0 -78 -11.667 -149.167 -35 -213.5s-56.5 -119 -99.5 -164s-95.833 -79.667 -158.5 -104
s-133.667 -36.5 -213 -36.5c-78 0 -148.333 12.167 -211 36.5s-115.5 63.166 -158.5 116.499s-76.167 122 -99.5 206s-35 185.333 -35 304zM309 496.001c-1.33301 -109.333 24 -193.666 76 -252.999s123 -89 213 -89c83.333 0 152 29.667 206 89s81 144.333 81 255
c0 54.667 -7.5 103.167 -22.5 145.5s-35.167 77.833 -60.5 106.5s-55.5 50.5 -90.5 65.5s-72.833 22.5 -113.5 22.5c-87.333 0 -157.333 -29.833 -210 -89.5s-79 -143.834 -79 -252.501z" />
    <glyph glyph-name="seven" unicode="7" horiz-adv-x="966" 
d="M57 1350v186.003h901v-145l-354 -785c-36.667 -79.333 -66 -149.333 -88 -210s-39.167 -114.834 -51.5 -162.501s-20.833 -90.334 -25.5 -128.001s-7.66699 -72.834 -9 -105.501h-207c1.33301 36.667 5.5 75.167 12.5 115.5s17.667 85.5 32 135.5s33 106 56 168
s53.167 133.333 90.5 214l323 717h-680z" />
    <glyph glyph-name="eight" unicode="8" horiz-adv-x="1185" 
d="M80 428c0 91.333 24.499 171.834 73.499 241.501s121.5 120.167 217.5 151.5v17c-39.333 12 -73.833 29.333 -103.5 52s-53.667 48.334 -72 77.001s-32 60 -41 94s-13.5 68.667 -13.5 104c0 54.667 10 106 30 154s49 89.333 87 124s85 62.167 141 82.5s121 30.5 195 30.5
s138.833 -10.167 194.5 -30.5s102.667 -47.833 141 -82.5s67 -75.667 86 -123s28.5 -98.333 28.5 -153c0 -72.667 -18.333 -139.667 -55 -201s-94.667 -104 -174 -128v-17c95.333 -31.333 167.666 -81.5 216.999 -150.5s74 -149.167 74 -240.5
c0 -140.667 -44.333 -250.834 -133 -330.501s-215 -119.5 -379 -119.5c-80.667 0 -152.667 10.167 -216 30.5s-117.166 50 -161.499 89s-78.166 86.167 -101.499 141.5s-35 117.666 -35 186.999zM296.999 438.001c0 -88.667 26 -159.666 78 -212.999s125 -80 219 -80
s166.667 26.667 218 80s77 124.333 77 213c0 94 -25.667 167 -77 219s-124 78 -218 78s-167 -25.833 -219 -77.5s-78 -124.834 -78 -219.501zM357.999 1143c0 -80.667 21.167 -140.5 63.5 -179.5s99.833 -58.5 172.5 -58.5c70.667 0 127.167 19.5 169.5 58.5
s63.5 98.833 63.5 179.5c0 78 -21.167 138.833 -63.5 182.5s-98.833 65.5 -169.5 65.5c-74 0 -131.833 -21.833 -173.5 -65.5s-62.5 -104.5 -62.5 -182.5z" />
    <glyph glyph-name="nine" unicode="9" horiz-adv-x="1193" 
d="M92 1038c0 78 11.6631 149.168 34.9961 213.501s57.166 119 101.499 164s97.5 79.667 159.5 104s132 36.5 210 36.5c83.333 0 156.333 -12.833 219 -38.5s115.167 -66.834 157.5 -123.501s74.166 -129.5 95.499 -218.5s32 -196.167 32 -321.5
c0 -176 -13.667 -320.667 -41 -434s-66.666 -202.833 -117.999 -268.5s-113.5 -110.667 -186.5 -135s-155.167 -36.5 -246.5 -36.5c-19.333 0 -42.666 1 -69.999 3s-55.666 5.33301 -84.999 10s-59.666 11.167 -90.999 19.5s-60.666 19.166 -87.999 32.499v203
c57.333 -34 114.666 -57.167 171.999 -69.5s115.333 -18.5 174 -18.5c74 0 134.833 13.667 182.5 41s85.834 65.5 114.501 114.5s49.5 107.333 62.5 175s21.5 141.834 25.5 222.501h-20c-31.333 -61.333 -72.666 -107.833 -123.999 -139.5s-119.333 -47.5 -204 -47.5
c-148.667 0 -263.667 45.833 -345 137.5s-122 216.5 -122 374.5zM308.996 1038c0 -109.333 26.667 -193.335 80 -252.002s123 -88 209 -88c91.333 0 162 29.833 212 89.5s75.667 143.834 77 252.501c0 110.667 -24.667 195.334 -74 254.001s-121 88 -215 88
c-88.667 0 -159 -29.667 -211 -89s-78 -144.333 -78 -255z" />
    <glyph glyph-name="colon" unicode=":" horiz-adv-x="522" 
d="M123 115c0 38 13.333 70.333 40 97s59.667 40 99 40c36.667 0 68.667 -13.333 96 -40s41 -59 41 -97c0 -39.333 -13.667 -72.5 -41 -99.5s-59.333 -40.5 -96 -40.5c-39.333 0 -72.333 13.333 -99 40s-40 60 -40 100zM123 803c0 38 13.333 70.333 40 97s59.667 40 99 40
c36.667 0 68.667 -13.333 96 -40s41 -59 41 -97c0 -39.333 -13.667 -72.5 -41 -99.5s-59.333 -40.5 -96 -40.5c-39.333 0 -72.333 13.333 -99 40s-40 60 -40 100z" />
    <glyph glyph-name="semicolon" unicode=";" horiz-adv-x="526" 
d="M123 115c0 38 13.332 70.334 39.999 97.001s59.667 40 99 40c28.667 0 53.334 -6.16699 74.001 -18.5s36 -29 46 -50s15.333 -45.167 16 -72.5s-4.33301 -56 -15 -86l-107 -299h-122l79 254c-35.333 5.33301 -62.5 20.166 -81.5 44.499s-28.5 54.5 -28.5 90.5z
M122.999 803.001c0 38 13.333 70.333 40 97s59.667 40 99 40c36.667 0 68.667 -13.333 96 -40s41 -59 41 -97c0 -39.333 -13.667 -72.5 -41 -99.5s-59.333 -40.5 -96 -40.5c-39.333 0 -72.333 13.333 -99 40s-40 60 -40 100z" />
    <glyph glyph-name="less" unicode="&#x3c;" horiz-adv-x="954" 
d="M61 655v111l768 440v-188l-528 -303l530 -305v-195z" />
    <glyph glyph-name="equal" unicode="=" horiz-adv-x="1056" 
d="M123 451v163h811v-163h-811zM123 838v163h811v-163h-811z" />
    <glyph glyph-name="greater" unicode="&#x3e;" horiz-adv-x="954" 
d="M123 215v193l528 303l-526 303v192l768 -440v-111z" />
    <glyph glyph-name="question" unicode="?" horiz-adv-x="985" 
d="M115 1251l-0.00390625 199.001c22 18 47.667 33.833 77 47.5s60.333 24.834 93 33.501s66.334 15 101.001 19s69 6 103 6c138 0 241.833 -29.667 311.5 -89s104.5 -144.333 104.5 -255c0 -61.333 -10.5 -114.5 -31.5 -159.5s-47.667 -84.5 -80 -118.5
s-67.166 -63.667 -104.499 -89l-104 -72c-32 -22.667 -58.667 -44.834 -80 -66.501s-32 -45.5 -32 -71.5c0 -31.333 12.667 -55.833 38 -73.5s63.333 -25.834 114 -24.501v-148c-52 0 -99.833 4.16699 -143.5 12.5s-81.167 21.333 -112.5 39s-56.333 40.834 -75 69.501
s-28 64 -28 106c0 45.333 10.667 85 32 119s47.333 64.667 78 92s64.334 53 101.001 77s70.5 49 101.5 75s57 54.667 78 86s31.5 68.333 31.5 111c0 132 -75.667 198 -227 198c-65.333 0 -125.666 -8.83301 -180.999 -26.5s-110.333 -49.834 -165 -96.501zM327.996 115.001
c0 38 13.333 70.333 40 97s59.667 40 99 40c36.667 0 68.667 -13.333 96 -40s41 -59 41 -97c0 -39.333 -13.667 -72.5 -41 -99.5s-59.333 -40.5 -96 -40.5c-39.333 0 -72.333 13.333 -99 40s-40 60 -40 100z" />
    <glyph glyph-name="at" unicode="@" horiz-adv-x="2027" 
d="M92 473c0 178.667 26.998 330.163 80.998 454.496s125.667 225.166 215 302.499s190.666 133.333 303.999 168s229.333 52 348 52c126.667 0 244.834 -17 354.501 -51s204.334 -87.333 284.001 -160s142.334 -165.5 188.001 -278.5s68.5 -249.5 68.5 -409.5
c0 -177.333 -34.333 -316.833 -103 -418.5s-168 -152.5 -298 -152.5c-52 0 -95 5 -129 15s-62 23.5 -84 40.5s-39.167 36.167 -51.5 57.5s-23.166 42.333 -32.499 63h-14c-31.333 -53.333 -69.333 -96 -114 -128s-106.334 -48 -185.001 -48
c-128.667 0 -225.334 39.833 -290.001 119.5s-97 204.167 -97 373.5c0 162.667 35.5 286 106.5 370s168.5 126 292.5 126c75.333 0 135.833 -14.667 181.5 -44s78.834 -70 99.501 -122h14v145h186v-594c0 -44 3.83301 -78.833 11.5 -104.5s17.667 -46 30 -61
s26.666 -24.833 42.999 -29.5s33.166 -7 50.499 -7c36.667 0 66.667 10.833 90 32.5s41.166 50.334 53.499 86.001s21 76 26 121s7.5 91.167 7.5 138.5c0 144.667 -19.833 264.5 -59.5 359.5s-92 170.167 -157 225.5s-138.5 94 -220.5 116s-166 33 -252 33
c-83.333 0 -169 -11.667 -257 -35s-167.833 -64.666 -239.5 -123.999s-130.334 -140.166 -176.001 -242.499s-68.5 -232.166 -68.5 -389.499c0 -118.667 13.667 -219.667 41 -303s63.166 -152.666 107.499 -207.999s93.833 -98.666 148.5 -129.999
s109.667 -54.833 165 -70.5s107.5 -25.5 156.5 -29.5s89.833 -6 122.5 -6c28.667 0 59.834 1.66699 93.501 5s67.5 8.33301 101.5 15s67 15.167 99 25.5s59.667 23.166 83 38.499v-189c-22 -12 -47.667 -23.167 -77 -33.5s-60.666 -19.333 -93.999 -27
s-67.666 -13.167 -102.999 -16.5s-69.666 -5 -102.999 -5c-60 0 -124.833 3.83301 -194.5 11.5s-139.667 23 -210 46s-138.166 55.667 -203.499 98s-123.333 98 -174 167s-91 153.333 -121 253s-45 219.167 -45 358.5zM742.998 472.996
c0 -110.667 22.166 -191.166 66.499 -241.499s106.833 -75.5 187.5 -75.5c65.333 0 119 20.833 161 62.5s63 114.167 63 217.5v105c0 75.333 -18.167 136.166 -54.5 182.499s-92.166 69.5 -167.499 69.5c-80.667 0 -143.5 -25.667 -188.5 -77s-67.5 -132.333 -67.5 -243z
" />
    <glyph glyph-name="A" unicode="A" horiz-adv-x="1236" 
d="M20 0l492 1536h193l512 -1536h-211l-123 383h-561l-119 -383h-183zM377 561h446l-217 674h-18z" />
    <glyph glyph-name="B" unicode="B" horiz-adv-x="1206" 
d="M162 0l0.00390625 1536h420c87.333 0 162.333 -9.16699 225 -27.5s114.5 -44.333 155.5 -78s71 -74 90 -121s28.5 -99.167 28.5 -156.5c0 -88.667 -22.5 -160 -67.5 -214s-107.167 -94.667 -186.5 -122v-16c109.333 -24.667 188.666 -70.167 237.999 -136.5
s74 -144.5 74 -234.5c0 -60 -9.33301 -116 -28 -168s-48.334 -97.333 -89.001 -136s-94.834 -69.334 -162.501 -92.001s-150.834 -34 -249.501 -34h-448zM369.004 174.001l223 0.00195312c102.667 0 183.334 20.167 242.001 60.5s88 106.166 88 197.499
c0 49.333 -8.66699 91.333 -26 126s-41.333 62.667 -72 84s-66.834 37.166 -108.501 47.499s-87.5 15.5 -137.5 15.5h-209v-531zM369.004 872.003l198.001 -0.000976562c94 0 167 23.333 219 70s78 112.334 78 197.001c0 78 -25.833 134.667 -77.5 170
s-124.834 53 -219.501 53h-198v-490z" />
    <glyph glyph-name="C" unicode="C" horiz-adv-x="1167" 
d="M86 768c0 120 15 228.831 45 326.498s73.667 180.667 131 249s127.333 120.833 210 157.5s176.667 55 282 55c24.667 0 50.5 -1 77.5 -3s53.833 -5 80.5 -9s52 -9 76 -15s45 -13.333 63 -22v-188c-68 38 -162.333 57 -283 57c-64 0 -124.333 -12.667 -181 -38
s-106.167 -63.166 -148.5 -113.499s-75.5 -113.333 -99.5 -189s-36 -164.834 -36 -267.501c0 -208.667 41.333 -362.167 124 -460.5s197 -147.5 343 -147.5c19.333 0 41.5 0.666992 66.5 2s51.5 5 79.5 11s56.333 14.833 85 26.5s56.667 27.834 84 48.501v-193
c-52 -31.333 -107.833 -51.666 -167.5 -60.999s-115.5 -14 -167.5 -14c-114.667 0 -213.667 18.333 -297 55s-152 89.167 -206 157.5s-94.333 151 -121 248s-40 206.167 -40 327.5z" />
    <glyph glyph-name="D" unicode="D" horiz-adv-x="1325" 
d="M162 0v1536h317c244.667 0 432.5 -65.167 563.5 -195.5s196.5 -320.5 196.5 -570.5s-65.833 -440.833 -197.5 -572.5s-319.167 -197.5 -562.5 -197.5h-317zM369 182l110 -0.000976562c168 0 300.5 48.833 397.5 146.5s145.5 244.834 145.5 441.501
c0 198 -48.5 344.833 -145.5 440.5s-229.5 143.5 -397.5 143.5h-110v-1172z" />
    <glyph glyph-name="E" unicode="E" horiz-adv-x="1089" 
d="M162 0v1536h831v-182h-624v-473h510v-183h-510v-516h651v-182h-858z" />
    <glyph glyph-name="F" unicode="F" horiz-adv-x="993" 
d="M162 0v1536h790v-182h-583v-484h475v-182h-475v-688h-207z" />
    <glyph glyph-name="G" unicode="G" horiz-adv-x="1263" 
d="M86 768c0 125.333 16.999 237.166 50.999 335.499s81.833 181 143.5 248s135.834 117.833 222.501 152.5s182.667 52 288 52c23.333 0 49.833 -1 79.5 -3s59.667 -5 90 -9s59 -9 86 -15s48.833 -13.333 65.5 -22v-186c-35.333 18 -80 31.667 -134 41s-111.667 14 -173 14
c-74 0 -141.667 -14 -203 -42s-114.166 -68.167 -158.499 -120.5s-78.833 -116.166 -103.5 -191.499s-37 -160 -37 -254s9.83301 -178.667 29.5 -254s49.667 -139.166 90 -191.499s91 -92.5 152 -120.5s131.5 -42 211.5 -42c19.333 0 43.333 0.666992 72 2
s58.667 4.66602 90 9.99902v426h-282v174h485v-737c-24.667 -10.667 -52.334 -19.834 -83.001 -27.501s-62.667 -13.5 -96 -17.5s-66.833 -6.66699 -100.5 -8s-65.5 -2 -95.5 -2c-113.333 0 -213 17.667 -299 53s-158 86.833 -216 154.5s-101.667 150.334 -131 248.001
s-44 208.5 -44 332.5z" />
    <glyph glyph-name="H" unicode="H" horiz-adv-x="1384" 
d="M162 0v1536h207v-659h647v659h207v-1536h-207v694h-647v-694h-207z" />
    <glyph glyph-name="I" unicode="I" horiz-adv-x="530" 
d="M162 0v1536h207v-1536h-207z" />
    <glyph glyph-name="J" unicode="J" horiz-adv-x="770" 
d="M16 27l-0.00195312 196c34 -24.667 69.833 -40.667 107.5 -48s70.167 -11 97.5 -11c76.667 0 129.334 24.833 158.001 74.5s43 129.167 43 238.5v1059h207v-1051c0 -76.667 -6.16699 -146 -18.5 -208s-32.833 -115.167 -61.5 -159.5s-66.167 -78.333 -112.5 -102
s-104.5 -35.5 -174.5 -35.5c-49.333 0 -96.166 4 -140.499 12s-79.5 19.667 -105.5 35z" />
    <glyph glyph-name="K" unicode="K" horiz-adv-x="1280" 
d="M162 0v1536h207v-836l585 836h224l-504 -731l592 -805h-271l-473 633l-153 -215v-418h-207z" />
    <glyph glyph-name="L" unicode="L" horiz-adv-x="997" 
d="M162 0v1536h207v-1354h606v-182h-813z" />
    <glyph glyph-name="M" unicode="M" horiz-adv-x="1671" 
d="M162 0v1536h272l402 -1223h10l399 1223h264v-1536h-206v1227h-13l-393 -1227h-154l-393 1227h-12v-1227h-176z" />
    <glyph glyph-name="N" unicode="N" horiz-adv-x="1396" 
d="M162 0v1536h213l663 -1159h11v1159h186v-1536h-209l-668 1161h-14v-1161h-182z" />
    <glyph glyph-name="O" unicode="O" horiz-adv-x="1409" 
d="M86 768c0 122.667 14.002 232.833 42.002 330.5s68.667 180.334 122 248.001s118.166 119.5 194.499 155.5s163.166 54 260.499 54c98 0 185.5 -18 262.5 -54s141.833 -87.833 194.5 -155.5s93 -150 121 -247s42 -206.833 42 -329.5s-14 -232.834 -42 -330.501
s-68.667 -180.667 -122 -249s-118.166 -120.5 -194.499 -156.5s-163.5 -54 -261.5 -54c-96.667 0 -183.334 18 -260.001 54s-141.667 88.167 -195 156.5s-94 151.333 -122 249s-42 207.167 -42 328.5zM303.002 767.999c0 -199.333 36 -350.5 108 -453.5
s170 -154.5 294 -154.5c125.333 0 223.833 51.833 295.5 155.5s107.5 255.167 107.5 454.5c0 198 -35.833 348.5 -107.5 451.5s-170.167 154.5 -295.5 154.5c-124 0 -222 -51.5 -294 -154.5s-108 -254.167 -108 -453.5z" />
    <glyph glyph-name="P" unicode="P" horiz-adv-x="1122" 
d="M162 0l0.000976562 1536h395c95.333 0 176.166 -13 242.499 -39s120 -60.5 161 -103.5s70.667 -91.833 89 -146.5s27.5 -110 27.5 -166c0 -60 -9.16699 -118.333 -27.5 -175s-48.333 -106.834 -90 -150.501s-95.667 -79.167 -162 -106.5s-146.5 -41 -240.5 -41h-188v-608
h-207zM369.001 793.001h178c94 0 169.667 23.833 227 71.5s86 120.5 86 218.5c0 87.333 -28.667 154.333 -86 201s-133 70 -227 70h-178v-561z" />
    <glyph glyph-name="Q" unicode="Q" horiz-adv-x="1409" 
d="M86 768c0 122.667 14.002 232.833 42.002 330.5s68.667 180.334 122 248.001s118.166 119.5 194.499 155.5s163.166 54 260.499 54c98 0 185.5 -18 262.5 -54s141.833 -87.833 194.5 -155.5s93 -150 121 -247s42 -206.833 42 -329.5s-14 -232.834 -42 -330.501
s-68.667 -180.667 -122 -249s-118.166 -120.5 -194.499 -156.5s-163.5 -54 -261.5 -54c-96.667 0 -183.334 18 -260.001 54s-141.667 88.167 -195 156.5s-94 151.333 -122 249s-42 207.167 -42 328.5zM303.002 767.999c0 -199.333 36 -350.5 108 -453.5
s170 -154.5 294 -154.5c125.333 0 223.833 51.833 295.5 155.5s107.5 255.167 107.5 454.5c0 198 -35.833 348.5 -107.5 451.5s-170.167 154.5 -295.5 154.5c-124 0 -222 -51.5 -294 -154.5s-108 -254.167 -108 -453.5zM532.002 -98.001l676 -41v-174l-676 41v174z" />
    <glyph glyph-name="R" unicode="R" horiz-adv-x="1253" 
d="M162 0l0.000976562 1536h381c100 0 184.333 -12.667 253 -38s124.167 -59.166 166.5 -101.499s72.666 -90.833 90.999 -145.5s27.5 -111.334 27.5 -170.001c0 -44 -5.66699 -87.333 -17 -130s-29.333 -82.834 -54 -120.501s-56.167 -71.5 -94.5 -101.5
s-84.166 -54 -137.499 -72l436 -657h-258l-391 608c-10.667 -1.33301 -20.834 -2 -30.501 -2h-26.5h-139v-606h-207zM369.001 791.001h178c95.333 0 172 22.833 230 68.5s87 117.5 87 215.5c0 94 -29 164 -87 210s-134.667 69 -230 69h-178v-563z" />
    <glyph glyph-name="S" unicode="S" 
d="M76 72l-0.00195312 212.996c69.333 -46.667 139.5 -79.167 210.5 -97.5s137.167 -27.5 198.5 -27.5c36.667 0 71.5 3.33301 104.5 10s61.5 19.334 85.5 38.001s42.833 43 56.5 73s20.5 68.667 20.5 116c0 40.667 -8.33301 75.5 -25 104.5s-39 54.333 -67 76
s-60.333 41.5 -97 59.5s-76.334 36.333 -119.001 55c-50.667 23.333 -97.667 48.333 -141 75s-80.833 57.334 -112.5 92.001s-56.667 75.334 -75 122.001s-27.5 102.667 -27.5 168c0 78 14.333 142.833 43 194.5s66.167 93.334 112.5 125.001s98.833 54.167 157.5 67.5
s118.334 20 179.001 20c64 0 125.667 -4.33301 185 -13s105.333 -22.667 138 -42v-196c-36.667 23.333 -82.667 41 -138 53s-114.333 18 -177 18c-32.667 0 -65.834 -3.33301 -99.501 -10s-64.167 -18.5 -91.5 -35.5s-49.5 -40.167 -66.5 -69.5
s-25.5 -66.666 -25.5 -111.999c0 -39.333 7.5 -73 22.5 -101s34.833 -52.667 59.5 -74s53.334 -40.833 86.001 -58.5s66.667 -34.834 102 -51.501c52 -24.667 102 -50.167 150 -76.5s90 -57 126 -92s64.667 -76 86 -123s32 -104.167 32 -171.5
c0 -57.333 -9 -111.5 -27 -162.5s-45.667 -95.667 -83 -134s-86 -68.666 -146 -90.999s-132.333 -33.5 -217 -33.5c-27.333 0 -58.166 1 -92.499 3s-70.166 6.33301 -107.499 13s-74.833 16.167 -112.5 28.5s-73.5 28.166 -107.5 47.499z" />
    <glyph glyph-name="T" unicode="T" horiz-adv-x="1140" 
d="M41 1354v182h1059v-182h-426v-1354h-207v1354h-426z" />
    <glyph glyph-name="U" unicode="U" horiz-adv-x="1345" 
d="M158 557v979h207v-969c0 -62.667 5.33301 -119.167 16 -169.5s28.667 -93 54 -128s58.166 -61.667 98.499 -80s89.833 -27.5 148.5 -27.5c61.333 0 111.833 9.16699 151.5 27.5s71.5 45.333 95.5 81s40.333 78.334 49 128.001s13 106.5 13 170.5v967h197v-977
c0 -82 -8.5 -158.167 -25.5 -228.5s-45 -131.333 -84 -183s-91.333 -92.5 -157 -122.5s-146.167 -45 -241.5 -45s-176.166 13.833 -242.499 41.5s-120.333 67.167 -162 118.5s-71.667 112.166 -90 182.499s-27.5 148.5 -27.5 234.5z" />
    <glyph glyph-name="V" unicode="V" horiz-adv-x="1216" 
d="M20 1536h216l395 -1208h18l361 1208h186l-473 -1536h-184z" />
    <glyph glyph-name="W" unicode="W" horiz-adv-x="1777" 
d="M27 1536h209l288 -1126h15l282 1126h158l287 -1126h18l281 1126h186l-397 -1536h-174l-291 1120h-19l-278 -1120h-166z" />
    <glyph glyph-name="X" unicode="X" horiz-adv-x="1280" 
d="M45 0l469 799l-446 737h233l334 -547l319 547h207l-420 -719l494 -817h-234l-383 629l-368 -629h-205z" />
    <glyph glyph-name="Y" unicode="Y" horiz-adv-x="1181" 
d="M14 1536h234l370 -694h11l344 694h194l-454 -913v-623h-207v623z" />
    <glyph glyph-name="Z" unicode="Z" horiz-adv-x="1058" 
d="M55 0v139l695 1215h-670v182h909v-139l-696 -1215h711v-182h-949z" />
    <glyph glyph-name="bracketleft" unicode="[" horiz-adv-x="657" 
d="M164 -471v2202h473v-158h-266v-1886h266v-158h-473z" />
    <glyph glyph-name="backslash" unicode="\" horiz-adv-x="968" 
d="M41 1690h190l697 -2182h-191z" />
    <glyph glyph-name="bracketright" unicode="]" horiz-adv-x="657" 
d="M20 -313h267v1886h-267v158h474v-2202h-474v158z" />
    <glyph glyph-name="asciicircum" unicode="^" horiz-adv-x="1009" 
d="M47 772l406 766h108l402 -768h-187l-272 512l-271 -510h-186z" />
    <glyph glyph-name="underscore" unicode="_" 
d="M0 -82h1044v-151h-1044v151z" />
    <glyph glyph-name="grave" unicode="`" horiz-adv-x="684" 
d="M98 1481h297l123 -299h-170z" />
    <glyph glyph-name="a" unicode="a" horiz-adv-x="1062" 
d="M96 270c0 58.667 11.666 109.833 34.999 153.5s60.5 79.167 111.5 106.5s116.833 47.833 197.5 61.5s178.334 20.5 293.001 20.5v47c0 74 -21.167 129.833 -63.5 167.5s-104.5 56.5 -186.5 56.5c-57.333 0 -112.5 -6.83301 -165.5 -20.5s-105.5 -37.5 -157.5 -71.5v184
c48 28.667 104 48.5 168 59.5s124.667 16.5 182 16.5c144.667 0 250.834 -34.5 318.501 -103.5s101.5 -165.833 101.5 -290.5v-657h-187v162h-14c-32.667 -57.333 -72.834 -102 -120.501 -134s-114.5 -48 -200.5 -48c-104 0 -182 27.167 -234 81.5s-78 123.833 -78 208.5z
M302.999 292.999c0 -44 13.3311 -80.333 39.998 -109s72.667 -43 138 -43c31.333 0 62 5.83301 92 17.5s57 29.5 81 53.5s43.167 54 57.5 90s21.5 78.667 21.5 128v55c-79.333 0 -146.166 -3.33301 -200.499 -10s-98.666 -17.5 -132.999 -32.5s-59 -34.833 -74 -59.5
s-22.5 -54.667 -22.5 -90z" />
    <glyph glyph-name="b" unicode="b" horiz-adv-x="1177" 
d="M145 0l-0.000976562 1536h197v-492l-10 -159h14c31.333 48 74 87.667 128 119s120 47 198 47c62.667 0 120.334 -12.667 173.001 -38s98 -60.833 136 -106.5s67.667 -101.334 89 -167.001s32 -139.5 32 -221.5c0 -84.667 -10.667 -160.5 -32 -227.5
s-51 -123.667 -89 -170s-83.667 -81.333 -137 -105s-111.333 -35.5 -174 -35.5c-147.333 0 -255.333 54.333 -324 163h-14v-143h-187zM341.999 455.001c0 -50.667 7.16699 -94.833 21.5 -132.5s33.833 -69.167 58.5 -94.5s53.667 -44.333 87 -57s68.333 -19 105 -19
s72.167 6.83301 106.5 20.5s64.5 35.5 90.5 65.5s46.5 67.833 61.5 113.5s22.5 101.167 22.5 166.5c0 62.667 -7.5 117 -22.5 163s-35.5 83.667 -61.5 113s-56 50.833 -90 64.5s-69.667 20.5 -107 20.5c-80.667 0 -146.167 -23.333 -196.5 -70s-75.5 -117 -75.5 -211v-143z
" />
    <glyph glyph-name="c" unicode="c" horiz-adv-x="915" 
d="M76 512c0 84.667 12.667 160.5 38 227.5s59.833 123.333 103.5 169s95.834 80.834 156.501 105.501s126.334 37 197.001 37c60 0 110.167 -4.5 150.5 -13.5s76.166 -21.833 107.499 -38.5v-190c-35.333 26 -74.833 43.333 -118.5 52s-83.834 13 -120.501 13
c-44 0 -84.667 -7.16699 -122 -21.5s-69.666 -36.5 -96.999 -66.5s-48.833 -67.833 -64.5 -113.5s-23.5 -99.167 -23.5 -160.5c0 -62.667 7.83301 -116.5 23.5 -161.5s37.167 -81.833 64.5 -110.5s60.333 -49.834 99 -63.501s82 -20.5 130 -20.5
c105.333 0 186.666 24.333 243.999 73v-194c-22 -12 -54.5 -24.167 -97.5 -36.5s-99.167 -18.5 -168.5 -18.5c-160 0 -283.667 46 -371 138s-131 223.333 -131 394z" />
    <glyph glyph-name="d" unicode="d" horiz-adv-x="1177" 
d="M76 510c0 83.333 10.5 158.167 31.5 224.5s51 123 90 170s85.833 83.167 140.5 108.5s115.334 38 182.001 38c70.667 0 132.334 -12.333 185.001 -37s94.667 -67 126 -127h15l-10 157v492h196v-1536h-186v143h-15c-28.667 -52 -70.834 -92.167 -126.501 -120.5
s-121.834 -42.5 -198.501 -42.5c-132.667 0 -237.5 46.333 -314.5 139s-115.5 223 -115.5 391zM283 510.001c0 -62.667 7.49902 -116.5 22.499 -161.5s35.5 -82.167 61.5 -111.5s56.333 -50.833 91 -64.5s71.667 -20.5 111 -20.5c34 0 67.167 5.66699 99.5 17
s60.833 29 85.5 53s44.5 55.167 59.5 93.5s22.5 84.166 22.5 137.499v141c0 90 -24.667 160 -74 210s-113 75 -191 75c-39.333 0 -76.666 -7.16699 -111.999 -21.5s-66 -36.166 -92 -65.499s-46.5 -67.333 -61.5 -114s-22.5 -102.667 -22.5 -168z" />
    <glyph glyph-name="e" unicode="e" 
d="M76 512c0 84.667 11.5 160.498 34.5 227.498s55 123.333 96 169s90.167 80.834 147.5 105.501s121 37 191 37c60 0 116 -8.66699 168 -26s96.667 -43.333 134 -78s67 -78.667 89 -132s33 -115.333 33 -186c0 -27.333 -1.33301 -52.666 -4 -75.999
s-5.66699 -40.333 -9 -51h-667v-8c0 -113.333 28 -198.333 84 -255c57.333 -58 137 -87 239 -87c61.333 0 119.333 7.5 174 22.5s104 40.167 148 75.5v-182c-34 -27.333 -81.333 -48.833 -142 -64.5s-128.667 -23.5 -204 -23.5c-160 0 -285.333 43.667 -376 131
s-136 221 -136 401zM287 636.998l485.002 -0.000976562c-2.66699 48 -10.834 88.333 -24.501 121s-31.334 58.834 -53.001 78.501s-46.167 34 -73.5 43s-56 13.5 -86 13.5c-65.333 0 -120 -20.5 -164 -61.5s-72 -105.833 -84 -194.5z" />
    <glyph glyph-name="f" unicode="f" horiz-adv-x="653" 
d="M39 860v170.002h143v133c0 125.333 30.5 222.166 91.5 290.499s146.5 102.5 256.5 102.5c36.667 0 71.5 -2.33301 104.5 -7s64.5 -12.334 94.5 -23.001v-183c-38 27.333 -89.333 41 -154 41c-62.667 0 -111 -17 -145 -51s-51 -92 -51 -174v-129h248v-170h-248v-860h-197
v860h-143z" />
    <glyph glyph-name="g" unicode="g" horiz-adv-x="1054" 
d="M57 -238c0 36.667 5.16602 69.1689 15.499 97.502s24.666 53 42.999 74s39.5 38.667 63.5 53s50.333 27.166 79 38.499c-56 30 -84 77.667 -84 143c0 36.667 11.333 70.667 34 102s57.667 56 105 74c-65.333 27.333 -117.166 68.666 -155.499 123.999
s-57.5 124 -57.5 206c0 58.667 10.333 111.167 31 157.5s49 85.833 85 118.5s79 57.667 129 75s105 26 165 26c90 0 169.333 -19.333 238 -58l290 37v-170l-161 2c30 -53.333 45 -115.333 45 -186c0 -58.667 -10.333 -110.834 -31 -156.501s-49 -84.334 -85 -116.001
s-79.333 -55.667 -130 -72s-106 -24.5 -166 -24.5h-2c-35.333 0 -68 -5.83301 -98 -17.5s-45 -32.5 -45 -62.5c0 -19.333 5.66699 -34.666 17 -45.999s28 -20.5 50 -27.5s47.333 -11.833 76 -14.5s60.667 -4.66699 96 -6c65.333 -2.66699 124.333 -10.5 177 -23.5
s96.834 -31.833 132.501 -56.5s63 -55.667 82 -93s28.5 -83.333 28.5 -138c0 -56 -11.667 -106.167 -35 -150.5s-56.5 -81.5 -99.5 -111.5s-94.167 -52.833 -153.5 -68.5s-125.666 -23.5 -198.999 -23.5c-72.667 0 -138.667 6.33301 -198 19s-109.833 31.334 -151.5 56.001
s-73.834 55.5 -96.501 92.5s-34 79.167 -34 126.5zM251.999 -187.998c0 -66.667 27.999 -116.502 83.999 -149.502s128.333 -49.5 217 -49.5c40.667 0 78.5 3.66699 113.5 11s65.833 19 92.5 35s47.5 36.167 62.5 60.5s22.5 52.833 22.5 85.5s-7.5 59 -22.5 79
s-35.167 35.833 -60.5 47.5s-55.5 19.834 -90.5 24.501s-72.833 8.33398 -113.5 11.001c-38 1.33301 -73.167 3.83301 -105.5 7.5s-61.166 8.16699 -86.499 13.5c-44 -22 -73.833 -47.333 -89.5 -76s-23.5 -62 -23.5 -100zM304.998 672c0 -74 19.5 -129.333 58.5 -166
s87.833 -55 146.5 -55c57.333 0 106.166 18.667 146.499 56s60.5 93 60.5 167c0 76.667 -20.167 133.667 -60.5 171s-89.166 56 -146.499 56c-58.667 0 -107.5 -19.5 -146.5 -58.5s-58.5 -95.833 -58.5 -170.5z" />
    <glyph glyph-name="h" unicode="h" horiz-adv-x="1146" 
d="M145 0l-0.00195312 1536h197v-492l-10 -157h14c36.667 60 83.334 102.333 140.001 127s116 37 178 37c122.667 0 211.334 -33.167 266.001 -99.5s82 -161.5 82 -285.5v-666h-197v592c0 96.667 -18.333 167.834 -55 213.501s-94.667 68.5 -174 68.5
c-69.333 0 -127.333 -20.667 -174 -62s-70 -110 -70 -206v-606h-197z" />
    <glyph glyph-name="i" unicode="i" horiz-adv-x="485" 
d="M106 1372c0 39.333 12.999 71.667 38.999 97s59 38 99 38c35.333 0 67 -12.5 95 -37.5s42 -57.5 42 -97.5c0 -38 -14 -69.667 -42 -95s-59.667 -38 -95 -38c-39.333 0 -72.166 12.667 -98.499 38s-39.5 57 -39.5 95zM144.999 0.000976562v1030h197v-1030h-197z" />
    <glyph glyph-name="j" unicode="j" horiz-adv-x="520" 
d="M-88 -322c33.333 -25.333 73.6689 -37.999 121.002 -37.999h4c26 0 48.5 4 67.5 12s34.667 23.333 47 46s21.166 54.5 26.499 95.5s8 94.167 8 159.5v1077h197v-1116c0 -82 -6.16699 -151.667 -18.5 -209s-30.833 -103.333 -55.5 -138s-55.334 -59.834 -92.001 -75.501
s-80.334 -23.5 -131.001 -23.5c-39.333 0 -73.666 3 -102.999 9s-53 13.667 -71 23v178zM147.003 1372c0 39.333 12.999 71.667 38.999 97s59 38 99 38c35.333 0 67 -12.5 95 -37.5s42 -57.5 42 -97.5c0 -38 -14 -69.667 -42 -95s-59.667 -38 -95 -38
c-39.333 0 -72.166 12.667 -98.499 38s-39.5 57 -39.5 95z" />
    <glyph glyph-name="k" unicode="k" horiz-adv-x="1028" 
d="M145 0v1536h197v-1042l410 536h211l-379 -487l430 -543h-246l-319 391l-107 -137v-254h-197z" />
    <glyph glyph-name="l" unicode="l" horiz-adv-x="555" 
d="M133 236l-0.000976562 1300h197v-1272c0 -45.333 9.5 -74.666 28.5 -87.999s42.167 -20 69.5 -20c24.667 -1.33301 44.834 0.666992 60.501 6s31.167 12 46.5 20v-170c-15.333 -9.33301 -35.333 -17 -60 -23s-54 -9 -88 -9c-79.333 0 -141.5 18.667 -186.5 56
s-67.5 104 -67.5 200z" />
    <glyph glyph-name="m" unicode="m" horiz-adv-x="1691" 
d="M145 0v1030h187v-145h14c31.333 52 72.333 92.667 123 122s110.667 44 180 44c74 0 133.5 -15 178.5 -45s77.833 -70.333 98.5 -121h14c18 31.333 38.5 57.5 61.5 78.5s47.833 38 74.5 51s54 22.333 82 28s55 8.5 81 8.5c60 0 110.5 -8.66699 151.5 -26
s73.833 -42.666 98.5 -75.999s42.5 -73.833 53.5 -121.5s16.5 -102.167 16.5 -163.5v-664h-197v598c0 95.333 -15.667 165.166 -47 209.499s-81.333 66.5 -150 66.5c-61.333 0 -112.5 -20 -153.5 -60s-61.5 -105.333 -61.5 -196v-618h-196v598
c0 95.333 -16.167 165.166 -48.5 209.499s-82.5 66.5 -150.5 66.5c-60 0 -110.5 -19.667 -151.5 -59s-61.5 -105 -61.5 -197v-618h-197z" />
    <glyph glyph-name="n" unicode="n" horiz-adv-x="1146" 
d="M145 0v1030h187v-145h14c34 58.667 78.667 101 134 127s116.666 39 183.999 39c122.667 0 211.334 -33.167 266.001 -99.5s82 -161.5 82 -285.5v-666h-197v592c0 96.667 -18.333 167.834 -55 213.501s-94.667 68.5 -174 68.5c-74 0 -133.167 -23.5 -177.5 -70.5
s-66.5 -112.833 -66.5 -197.5v-606h-197z" />
    <glyph glyph-name="o" unicode="o" horiz-adv-x="1114" 
d="M76 512c0 84.667 11.833 160.499 35.5 227.499s57 123.333 100 169s94 80.834 153 105.501s123.167 37 192.5 37c66.667 0 129.5 -12 188.5 -36s110.333 -59.167 154 -105.5s77.667 -102.666 102 -168.999s36.5 -141.833 36.5 -226.5s-12.167 -160.167 -36.5 -226.5
s-58 -122.333 -101 -168s-94 -80.334 -153 -104.001s-122.5 -35.5 -190.5 -35.5c-69.333 0 -133.5 11.833 -192.5 35.5s-110 58 -153 103s-76.333 100.667 -100 167s-35.5 141.833 -35.5 226.5zM283 511.999c0 -64 7.16602 -118.501 21.499 -163.501
s33.666 -82.167 57.999 -111.5s53.333 -50.833 87 -64.5s69.5 -20.5 107.5 -20.5c36.667 0 71.834 6.83301 105.501 20.5s63 35.5 88 65.5s44.667 67.5 59 112.5s21.5 99.5 21.5 163.5c0 62.667 -7.5 117.334 -22.5 164.001s-35 84.667 -60 114s-54 51.166 -87 65.499
s-67.833 21.5 -104.5 21.5c-38 0 -73.833 -7.16699 -107.5 -21.5s-62.667 -36.166 -87 -65.499s-43.666 -67.333 -57.999 -114s-21.5 -102 -21.5 -166z" />
    <glyph glyph-name="p" unicode="p" horiz-adv-x="1177" 
d="M145 -512l-0.00195312 1542h187v-145h14c28.667 48 69.334 87.667 122.001 119s120.667 47 204 47c62.667 0 120.334 -12.667 173.001 -38s98 -60.833 136 -106.5s67.667 -101.334 89 -167.001s32 -139.5 32 -221.5c0 -84.667 -10.667 -160.5 -32 -227.5
s-51 -123.667 -89 -170s-83.667 -81.333 -137 -105s-111.333 -35.5 -174 -35.5c-75.333 0 -140 14.667 -194 44s-97.333 69 -130 119h-14l10 -163v-492h-197zM341.998 455.001c0 -50.667 7.16602 -94.833 21.499 -132.5s33.833 -69.167 58.5 -94.5s53.667 -44.333 87 -57
s68.333 -19 105 -19s72.167 6.83301 106.5 20.5s64.5 35.5 90.5 65.5s46.5 67.833 61.5 113.5s22.5 101.167 22.5 166.5c0 62.667 -7.5 117 -22.5 163s-35.5 83.667 -61.5 113s-56 50.833 -90 64.5s-70.333 20.5 -109 20.5c-79.333 0 -144.166 -23.333 -194.499 -70
s-75.5 -117 -75.5 -211v-143z" />
    <glyph glyph-name="q" unicode="q" horiz-adv-x="1177" 
d="M76 510c0 83.333 10.499 158.167 31.499 224.5s51 123 90 170s85.833 83.167 140.5 108.5s115.334 38 182.001 38c70.667 0 132 -12.333 184 -37s94.333 -67 127 -127h15v143h186v-1542h-196v512l10 143h-15c-64.667 -108.667 -172 -163 -322 -163h-3
c-132.667 0 -237.5 46.333 -314.5 139s-115.5 223 -115.5 391zM282.999 510.001c0 -62.667 7.49902 -116.5 22.499 -161.5s35.5 -82.167 61.5 -111.5s56.333 -50.833 91 -64.5s71.667 -20.5 111 -20.5c34 0 67.167 5.66699 99.5 17s60.833 29 85.5 53s44.5 55.167 59.5 93.5
s22.5 84.166 22.5 137.499v141c0 90 -24.667 160 -74 210s-113 75 -191 75c-39.333 0 -76.666 -7.16699 -111.999 -21.5s-66 -36.166 -92 -65.499s-46.5 -67.333 -61.5 -114s-22.5 -102.667 -22.5 -168z" />
    <glyph glyph-name="r" unicode="r" horiz-adv-x="770" 
d="M145 0l0.000976562 1030h187v-162h14c19.333 49.333 51.833 92.166 97.5 128.499s105.5 54.5 179.5 54.5c24.667 0 48.167 -1.16699 70.5 -3.5s41.166 -6.83301 56.499 -13.5v-198c-20.667 6.66699 -44 12.334 -70 17.001s-55.333 7 -88 7
c-26 0 -53.667 -3.66699 -83 -11s-56.333 -21.333 -81 -42s-45.167 -49 -61.5 -85s-24.5 -82.667 -24.5 -140v-582h-197z" />
    <glyph glyph-name="s" unicode="s" horiz-adv-x="888" 
d="M80 55l0.000976562 188.999c53.333 -38 112.333 -64.333 177 -79s123 -22 175 -22c118.667 0 178 46.667 178 140c0 42 -16.333 73.667 -49 95s-71 39.333 -115 54c-38 13.333 -78.167 26.666 -120.5 39.999s-80.833 30.833 -115.5 52.5s-63.334 49.5 -86.001 83.5
s-34 78.333 -34 133c0 94 33.5 169.167 100.5 225.5s170.833 84.5 311.5 84.5c18 0 38.167 -0.666992 60.5 -2s45.5 -3.5 69.5 -6.5s47.5 -6.83301 70.5 -11.5s42.833 -11 59.5 -19v-181c-39.333 22 -81.333 36.833 -126 44.5s-86.667 11.5 -126 11.5
c-62.667 0 -112.834 -12 -150.501 -36s-56.5 -60 -56.5 -108c0 -36.667 14.667 -64.167 44 -82.5s66 -35.166 110 -50.499l117.5 -37.5c41.667 -13 79.834 -31.167 114.501 -54.5s63.667 -53.666 87 -90.999s35 -86 35 -146c0 -40.667 -6.83301 -79.5 -20.5 -116.5
s-35.5 -69.167 -65.5 -96.5s-69 -48.833 -117 -64.5s-105.333 -23.5 -172 -23.5c-60 0 -122 5 -186 15s-120.667 30 -170 60z" />
    <glyph glyph-name="t" unicode="t" horiz-adv-x="784" 
d="M39 860l-0.00195312 169.999h143v295h197v-295h321v-170h-321v-481c0 -74 10.833 -130.667 32.5 -170s63.5 -59 125.5 -59h21c34.667 0 63.334 2.66699 86.001 8c28 6.66699 51.667 13.334 71 20.001v-166c-30 -12 -62.167 -20.333 -96.5 -25s-71.166 -7 -110.499 -7
c-61.333 0 -112.833 8.83301 -154.5 26.5s-75.167 43.5 -100.5 77.5s-43.5 75.333 -54.5 124s-16.5 103 -16.5 163v489h-143z" />
    <glyph glyph-name="u" unicode="u" horiz-adv-x="1140" 
d="M135 365l0.000976562 665h197v-592c0 -102.667 19 -175.334 57 -218.001s94 -64 168 -64c26 0 53.333 4.33301 82 13s55 24.334 79 47.001s43.5 52.667 58.5 90s22.5 84 22.5 140v584h196v-1030h-186v143h-14c-31.333 -52 -73.333 -92.167 -126 -120.5
s-116.667 -42.5 -192 -42.5c-114.667 0 -200.334 33.333 -257.001 100s-85 161.667 -85 285z" />
    <glyph glyph-name="v" unicode="v" horiz-adv-x="964" 
d="M10 1030h205l283 -770h18l256 770h182l-358 -1030h-197z" />
    <glyph glyph-name="w" unicode="w" horiz-adv-x="1404" 
d="M10 1030h193l217 -788h18l187 788h178l219 -788h16l189 788h168l-267 -1030h-204l-215 774h-15l-184 -774h-205z" />
    <glyph glyph-name="x" unicode="x" horiz-adv-x="1028" 
d="M55 1030h232l241 -371l240 371h195l-334 -502l360 -528h-233l-250 383l-248 -383h-195l343 514z" />
    <glyph glyph-name="y" unicode="y" horiz-adv-x="978" 
d="M4 1030h209l289 -758h18l268 758h187l-555 -1542h-187l181 500z" />
    <glyph glyph-name="z" unicode="z" horiz-adv-x="958" 
d="M90 0v129l528 731h-518v170h746v-129l-529 -731h574v-170h-801z" />
    <glyph glyph-name="braceleft" unicode="{" horiz-adv-x="780" 
d="M82 557v156.002c39.333 8 71 18.833 95 32.5s42.833 30.667 56.5 51s22.5 44.5 26.5 72.5s6 60.667 6 98v336c0 86 8.16699 156.5 24.5 211.5s43.666 98.667 81.999 131s88.833 54.666 151.5 66.999s141.334 18.5 236.001 18.5v-158
c-70.667 0 -125.167 -4.5 -163.5 -13.5s-66.833 -26.167 -85.5 -51.5s-29.667 -60.833 -33 -106.5s-5 -104.5 -5 -176.5v-289c0 -35.333 -1.33301 -69.166 -4 -101.499s-9.16699 -61.333 -19.5 -87s-26.333 -47.834 -48 -66.501s-51.834 -32 -90.501 -40v-10
c38 -8 68 -21.667 90 -41s38.5 -41 49.5 -65s17.833 -49.833 20.5 -77.5s4 -55.167 4 -82.5v-226c0 -87.333 1.66699 -161 5 -221s14 -108.833 32 -146.5s46 -64.667 84 -81s92.667 -24.5 164 -24.5v-158c-92.667 0 -170.5 7.66699 -233.5 23s-113.667 42.666 -152 81.999
s-65.666 93.5 -81.999 162.5s-24.5 157.5 -24.5 265.5v289c0 20.667 -2.33301 43.167 -7 67.5s-13.5 47.833 -26.5 70.5s-31.833 42.167 -56.5 58.5s-56.667 26.5 -96 30.5z" />
    <glyph glyph-name="bar" unicode="|" horiz-adv-x="595" 
d="M205 -492v2175h186v-2175h-186z" />
    <glyph glyph-name="braceright" unicode="}" horiz-adv-x="780" 
d="M20 -334c70.667 0 125.33 8.16504 163.997 24.498s66.834 43.333 84.501 81s28.167 86.5 31.5 146.5s5 133.667 5 221v226c0 27.333 1.66699 54.833 5 82.5s10.5 53.834 21.5 78.501s27.5 46.167 49.5 64.5s51.333 31.833 88 40.5v10c-36.667 8 -66 21.333 -88 40
s-38.5 40.834 -49.5 66.501s-17.833 54.667 -20.5 87s-4 66.166 -4 101.499v289c0 72.667 -1.66699 131.667 -5 177s-14.166 80.666 -32.499 105.999s-46.666 42.5 -84.999 51.5s-93.166 13.5 -164.499 13.5v158c94 0 172.5 -6.16699 235.5 -18.5
s113.667 -34.666 152 -66.999s65.666 -76 81.999 -131s24.5 -125.5 24.5 -211.5v-336c0 -36.667 2 -69.167 6 -97.5s12.833 -52.666 26.5 -72.999s32.5 -37.333 56.5 -51s55.667 -24.5 95 -32.5v-156c-39.333 -4 -71.333 -14.167 -96 -30.5s-43.834 -35.833 -57.501 -58.5
s-22.5 -46.334 -26.5 -71.001s-6 -47 -6 -67v-289c0 -108 -8.16699 -196.5 -24.5 -265.5s-43.666 -123.167 -81.999 -162.5s-88.833 -66.666 -151.5 -81.999s-140.667 -23 -234 -23v158z" />
    <glyph glyph-name="asciitilde" unicode="~" horiz-adv-x="1153" 
d="M72 604c6.66699 112 36.667 197.001 90 255.001s123 87 209 87c54.667 0 100.667 -10.5 138 -31.5s71.333 -43.833 102 -68.5l89 -69c28.667 -21.333 61 -32 97 -32c38 0 68 12.667 90 38s34.333 69.333 37 132h157c-5.33301 -120 -32.5 -207.333 -81.5 -262
s-112.5 -82 -190.5 -82c-56 0 -102.5 10.333 -139.5 31s-70.833 43.667 -101.5 69s-61 48.166 -91 68.499s-65.333 30.5 -106 30.5c-42 0 -74.333 -14 -97 -42s-37.667 -69.333 -45 -124h-157z" />
    <glyph glyph-name="uni00A0" unicode="&#xa0;" horiz-adv-x="479" 
 />
    <glyph glyph-name="cent" unicode="&#xa2;" horiz-adv-x="915" 
d="M76 512c0 74 9.50098 140.671 28.501 200.004s45.667 111.5 80 156.5s75 82.167 122 111.5s99.167 49.333 156.5 60v215h143v-204c50.667 -2.66699 93.667 -8.16699 129 -16.5s66.666 -20.166 93.999 -35.499v-190c-32.667 23.333 -69.167 39.666 -109.5 48.999
s-78.166 14.666 -113.499 15.999v-718c50.667 1.33301 96.167 8.16602 136.5 20.499s74.166 29.833 101.499 52.5v-194c-19.333 -10.667 -48.5 -21.834 -87.5 -33.501s-89.167 -18.834 -150.5 -21.501v-160h-143v170c-124 20.667 -219.5 75.667 -286.5 165
s-100.5 208.333 -100.5 357zM283.001 512.004c0 -91.333 16.001 -164.002 48.001 -218.002s76 -92 132 -114v670c-54.667 -23.333 -98.334 -62.666 -131.001 -117.999s-49 -128.666 -49 -219.999z" />
    <glyph glyph-name="sterling" unicode="&#xa3;" horiz-adv-x="1042" 
d="M45 0v145c35.333 28.667 65 58.167 89 88.5s42.833 63.833 56.5 100.5s23.5 78.834 29.5 126.501s9 103.167 9 166.5h-168v168h168v280c0 69.333 7.83301 133.5 23.5 192.5s41.667 110 78 153s83.166 76.333 140.499 100s128.333 35.5 213 35.5
c49.333 0 98.833 -4 148.5 -12s90.167 -19.667 121.5 -35v-202c-28.667 19.333 -65.834 34.666 -111.501 45.999s-95.167 17 -148.5 17c-88.667 0 -152.167 -27.667 -190.5 -83s-57.5 -133.333 -57.5 -234v-258h420v-168h-420c0 -57.333 -2.66699 -108.5 -8 -153.5
s-13.166 -85 -23.499 -120s-22.666 -66.167 -36.999 -93.5s-30.833 -52 -49.5 -74h667v-186h-950z" />
    <glyph glyph-name="yen" unicode="&#xa5;" horiz-adv-x="1181" 
d="M14 1536h234l370 -694h11l344 694h194l-379 -760h263v-155h-338v-187h338v-155h-338v-279h-207v279h-338v155h338v187h-338v155h256z" />
    <glyph glyph-name="dieresis" unicode="&#xa8;" horiz-adv-x="1034" 
d="M162 1372c0 36.667 12.667 68.334 38 95.001s57.666 40 96.999 40c35.333 0 66.666 -13.333 93.999 -40s41 -58.334 41 -95.001c0 -38 -13.667 -69.667 -41 -95s-58.666 -38 -93.999 -38c-39.333 0 -71.666 12.667 -96.999 38s-38 57 -38 95zM588 1372
c0 36.667 13.333 68.334 40 95.001s58.334 40 95.001 40s68.334 -13.333 95.001 -40s40 -58.334 40 -95.001c0 -38 -13.333 -69.667 -40 -95s-58.334 -38 -95.001 -38s-68.334 12.667 -95.001 38s-40 57 -40 95z" />
    <glyph glyph-name="copyright" unicode="&#xa9;" horiz-adv-x="1783" 
d="M104 768c0 128.667 21.167 241.667 63.5 339s99.333 179.5 171 246.5s155.334 117.5 251.001 151.5s196.834 51 303.501 51c105.333 0 205.666 -17 300.999 -51s179.166 -84.5 251.499 -151.5s129.666 -149.167 171.999 -246.5s63.5 -210.333 63.5 -339
s-21.167 -242 -63.5 -340s-99.666 -180.167 -171.999 -246.5s-156.166 -116.5 -251.499 -150.5s-195.666 -51 -300.999 -51c-106.667 0 -207.834 17 -303.501 51s-179.334 84.167 -251.001 150.5s-128.667 148.5 -171 246.5s-63.5 211.333 -63.5 340zM276 768
c0 -105.333 16.5 -197.499 49.5 -276.499s77.5 -145.5 133.5 -199.5s121.167 -94.667 195.5 -122s153.166 -41 236.499 -41c88.667 0 170.5 13.667 245.5 41s139.833 68 194.5 122s97.334 120.5 128.001 199.5s46 171.167 46 276.5c0 96.667 -15.333 184.667 -46 264
s-73.334 146.666 -128.001 201.999s-119.5 98 -194.5 128s-156.833 45 -245.5 45c-84.667 0 -164.5 -13.667 -239.5 -41s-140.167 -68 -195.5 -122s-99.166 -120.833 -131.499 -200.5s-48.5 -171.5 -48.5 -275.5zM502 768.001c0 70.667 10.832 133.667 32.499 189
s51.334 102.5 89.001 141.5s82.167 68.833 133.5 89.5s107 31 167 31c50.667 0 93 -3.5 127 -10.5s63.333 -17.833 88 -32.5v-172c-28.667 22 -61.167 36.333 -97.5 43s-70.166 10 -101.499 10c-72.667 0 -132.834 -22.5 -180.501 -67.5s-71.5 -118.833 -71.5 -221.5
s23.833 -175.5 71.5 -218.5s110.5 -64.5 188.5 -64.5c42 0 80.5 5.16699 115.5 15.5s64.167 25.833 87.5 46.5v-174c-18 -10.667 -45 -21.167 -81 -31.5s-82.667 -15.5 -140 -15.5c-134 0 -238.833 38.5 -314.5 115.5s-113.5 185.833 -113.5 326.5z" />
    <glyph glyph-name="guillemotleft" unicode="&#xab;" horiz-adv-x="905" 
d="M47 498v102l391 416v-215l-227 -246l229 -240v-233zM428 498v102l387 412v-215l-227 -246l229 -244v-221z" />
    <glyph glyph-name="uni00AD" unicode="&#xad;" horiz-adv-x="778" 
d="M88 516v150h602v-150h-602z" />
    <glyph glyph-name="registered" unicode="&#xae;" horiz-adv-x="1325" 
d="M117 1010c0 88.667 14.667 167.167 44 235.5s68.5 125.333 117.5 171s106.667 80.334 173 104.001s136.5 35.5 210.5 35.5s143.667 -11.833 209 -35.5s123.166 -58.334 173.499 -104.001s90.166 -102.667 119.499 -171s44 -146.833 44 -235.5
s-14.667 -166.834 -44 -234.501s-69.166 -124.667 -119.499 -171s-108.166 -81.166 -173.499 -104.499s-135 -35 -209 -35s-144.167 11.667 -210.5 35s-124 58.166 -173 104.499s-88.167 103.333 -117.5 171s-44 145.834 -44 234.501zM258 1010
c0 -69.333 10.667 -130 32 -182s50.333 -95.5 87 -130.5s79.667 -61.333 129 -79s101.333 -26.5 156 -26.5c58.667 0 112.834 8.83301 162.501 26.5s92.334 44 128.001 79s63.667 78.333 84 130s30.5 112.5 30.5 182.5c0 64 -10.167 122 -30.5 174s-48.333 96 -84 132
s-78.334 64 -128.001 84s-103.834 30 -162.501 30c-56 0 -108.667 -9 -158 -27s-92.5 -44.667 -129.5 -80s-65.667 -79 -86 -131s-30.5 -112.667 -30.5 -182zM471 731v578.001h197c80.667 0 137.667 -16.5 171 -49.5s50 -74.5 50 -124.5c0 -35.333 -8.5 -67.833 -25.5 -97.5
s-44.167 -51.834 -81.5 -66.501l156 -240h-145l-138 213h-61v-213h-123zM594 1036h57c34 0 60.667 7.83301 80 23.5s29 38.5 29 68.5c0 34 -10.333 57.667 -31 71s-46.667 20 -78 20h-57v-183z" />
    <glyph glyph-name="degree" unicode="&#xb0;" horiz-adv-x="645" 
d="M72 1319c0 80.667 24.167 141.502 72.5 182.502s107.5 61.5 177.5 61.5c32.667 0 64 -5.16699 94 -15.5s56.5 -25.833 79.5 -46.5s41.333 -46.334 55 -77.001s20.5 -65.667 20.5 -105s-6.83301 -74.5 -20.5 -105.5s-32 -56.667 -55 -77s-49.5 -36 -79.5 -47
s-61.333 -16.5 -94 -16.5c-69.333 0 -128.333 21.167 -177 63.5s-73 103.166 -73 182.499zM211 1319c0 -39.333 11.333 -69.334 34 -90.001s49 -31 79 -31c32.667 0 59.834 10.333 81.501 31s32.5 50.667 32.5 90c0 38 -10.833 67 -32.5 87s-48.834 30 -81.501 30
c-31.333 0 -58 -9.66699 -80 -29s-33 -48.666 -33 -87.999z" />
    <glyph glyph-name="acute" unicode="&#xb4;" horiz-adv-x="698" 
d="M143 1182l150 299h285l-261 -299h-174z" />
    <glyph glyph-name="periodcentered" unicode="&#xb7;" horiz-adv-x="536" 
d="M129 596c0 38 13.333 70.333 40 97s59.667 40 99 40c36.667 0 68.667 -13.333 96 -40s41 -59 41 -97c0 -39.333 -13.667 -72.5 -41 -99.5s-59.333 -40.5 -96 -40.5c-39.333 0 -72.333 13.333 -99 40s-40 60 -40 100z" />
    <glyph glyph-name="cedilla" unicode="&#xb8;" horiz-adv-x="684" 
d="M168 -225c23.333 -22 46.5 -36.833 69.5 -44.5s47.5 -11.5 73.5 -11.5c27.333 0 46.5 5.5 57.5 16.5s16.5 24.167 16.5 39.5c0 24.667 -10.167 41.334 -30.5 50.001s-53.833 13 -100.5 13v162h133v-74c46.667 -4 85.667 -18.333 117 -43s47 -65.667 47 -123
c0 -48 -16.333 -86.833 -49 -116.5s-86.667 -44.5 -162 -44.5c-35.333 0 -67.333 2.66699 -96 8s-54 14.666 -76 27.999v140z" />
    <glyph glyph-name="guillemotright" unicode="&#xbb;" horiz-adv-x="905" 
d="M88 791v221l389 -412v-102l-387 -414v217l227 246zM465 782v234l393 -416v-102l-391 -416v213l229 248z" />
    <glyph glyph-name="circumflex" unicode="&#x2c6;" horiz-adv-x="1024" 
d="M172 1167l242 314h157l242 -314h-195l-120 152h-11l-120 -152h-195z" />
    <glyph glyph-name="ring" unicode="&#x2da;" horiz-adv-x="733" 
d="M164 1346c0 56 19.833 101.332 59.5 135.999s88.167 52 145.5 52c26 0 50.833 -4.83301 74.5 -14.5s44.834 -22.667 63.501 -39s33.667 -36.166 45 -59.499s17 -48.333 17 -75c0 -27.333 -5.66699 -53 -17 -77s-26.333 -44.5 -45 -61.5s-39.834 -30.333 -63.501 -40
s-48.5 -14.5 -74.5 -14.5c-57.333 0 -105.833 18.167 -145.5 54.5s-59.5 82.5 -59.5 138.5zM295 1346c0 -20.667 6.83301 -37.167 20.5 -49.5s31.5 -18.5 53.5 -18.5c19.333 0 36.333 6.16699 51 18.5s22 28.833 22 49.5c0 19.333 -7.5 35 -22.5 47s-31.833 18 -50.5 18
c-22 0 -39.833 -6.16699 -53.5 -18.5s-20.5 -27.833 -20.5 -46.5z" />
    <glyph glyph-name="tilde" unicode="&#x2dc;" horiz-adv-x="716" 
d="M102 1231l-0.00195312 181.999c8 15.333 22.333 30.166 43 44.499s50 21.5 88 21.5c24.667 0 48.334 -3.5 71.001 -10.5s44.5 -14.833 65.5 -23.5s41.833 -16.5 62.5 -23.5s41.334 -10.5 62.001 -10.5c28.667 0 52.5 5.83301 71.5 17.5s35.167 31.834 48.5 60.501v-182
c-19.333 -45.333 -61 -68 -125 -68c-26 0 -50.167 3.83301 -72.5 11.5l-65.5 23.5l-62.5 23.5c-20.333 7.66699 -41.5 11.5 -63.5 11.5c-27.333 0 -50.833 -7.16699 -70.5 -21.5s-37.167 -33.166 -52.5 -56.499z" />
    <glyph glyph-name="afii10023" unicode="&#x401;" horiz-adv-x="1089" 
d="M162 0v1536h831v-182h-624v-473h510v-183h-510v-516h651v-182h-858zM260 1749c0 35.333 12 65.333 36 90s55 37 93 37c36.667 0 67.334 -12.333 92.001 -37s37 -54.667 37 -90s-12.333 -65 -37 -89s-55.334 -36 -92.001 -36c-38 0 -69 12 -93 36s-36 53.667 -36 89z
M660 1749c0 35.333 11.832 65.333 35.499 90s54.834 37 93.501 37c38 0 69 -12.333 93 -37s36 -54.667 36 -90s-12 -65 -36 -89s-55 -36 -93 -36s-69 12 -93 36s-36 53.667 -36 89z" />
    <glyph glyph-name="afii10017" unicode="&#x410;" horiz-adv-x="1236" 
d="M20 0l492 1536h193l512 -1536h-211l-123 383h-561l-119 -383h-183zM377 561h446l-217 674h-18z" />
    <glyph glyph-name="afii10018" unicode="&#x411;" horiz-adv-x="1191" 
d="M162 0l-0.000976562 1536h856v-182h-649v-414h211c95.333 0 177.5 -11.667 246.5 -35s125.333 -56.166 169 -98.499s75.667 -92.5 96 -150.5s30.5 -122.333 30.5 -193c0 -58.667 -10.167 -116 -30.5 -172s-52.666 -105.5 -96.999 -148.5s-101 -77.5 -170 -103.5
s-152.833 -39 -251.5 -39h-411zM368.999 181.999l198 -0.000976562c106.667 0 189.667 22.833 249 68.5s89 115.834 89 210.501c0 102.667 -30 177.5 -90 224.5s-143.333 70.5 -250 70.5h-196v-574z" />
    <glyph glyph-name="afii10019" unicode="&#x412;" horiz-adv-x="1206" 
d="M162 0l0.00390625 1536h420c87.333 0 162.333 -9.16699 225 -27.5s114.5 -44.333 155.5 -78s71 -74 90 -121s28.5 -99.167 28.5 -156.5c0 -88.667 -22.5 -160 -67.5 -214s-107.167 -94.667 -186.5 -122v-16c109.333 -24.667 188.666 -70.167 237.999 -136.5
s74 -144.5 74 -234.5c0 -60 -9.33301 -116 -28 -168s-48.334 -97.333 -89.001 -136s-94.834 -69.334 -162.501 -92.001s-150.834 -34 -249.501 -34h-448zM369.004 174.001l223 0.00195312c102.667 0 183.334 20.167 242.001 60.5s88 106.166 88 197.499
c0 49.333 -8.66699 91.333 -26 126s-41.333 62.667 -72 84s-66.834 37.166 -108.501 47.499s-87.5 15.5 -137.5 15.5h-209v-531zM369.004 872.003l198.001 -0.000976562c94 0 167 23.333 219 70s78 112.334 78 197.001c0 78 -25.833 134.667 -77.5 170
s-124.834 53 -219.501 53h-198v-490z" />
    <glyph glyph-name="afii10020" unicode="&#x413;" horiz-adv-x="999" 
d="M162 0v1536h796v-182h-589v-1354h-207z" />
    <glyph glyph-name="afii10021" unicode="&#x414;" horiz-adv-x="1406" 
d="M10 182l109.003 -0.000976562c39.333 38 72.333 86.5 99 145.5s48.167 124.667 64.5 197s28.666 149.833 36.999 232.5s14.166 167.667 17.499 255s4.66602 175.333 3.99902 264s-1 175.334 -1 260.001h827v-1354h181v-499h-177l-22 317h-942l-21 -317h-176v499z
M336.003 181.999h624.997v1172h-437c0 -117.333 -1.66699 -233.833 -5 -349.5s-11.166 -225 -23.499 -328s-31.166 -197.167 -56.499 -282.5s-59.666 -156 -102.999 -212z" />
    <glyph glyph-name="afii10022" unicode="&#x415;" horiz-adv-x="1089" 
d="M162 0v1536h831v-182h-624v-473h510v-183h-510v-516h651v-182h-858z" />
    <glyph glyph-name="afii10024" unicode="&#x416;" horiz-adv-x="1818" 
d="M20 0l515 786l-486 750h221l439 -676l94 -37v713h207v-713l96 39l438 674h207l-475 -731l522 -805h-246l-450 688l-92 -35v-653h-207v653l-90 35l-453 -688h-240z" />
    <glyph glyph-name="afii10025" unicode="&#x417;" horiz-adv-x="1028" 
d="M63 55l0.000976562 196.998c54.667 -31.333 110.667 -54.5 168 -69.5s123 -22.5 197 -22.5c100 0 177.5 22.167 232.5 66.5s82.5 113.5 82.5 207.5c0 48 -9.16699 89 -27.5 123s-42.833 62.333 -73.5 85s-67.167 39.167 -109.5 49.5s-86.833 15.5 -133.5 15.5h-139v184
h139c90 0 159.667 23.167 209 69.5s74 111.833 74 196.5c0 72.667 -23.5 127 -70.5 163s-110.167 54 -189.5 54c-65.333 0 -124.333 -8.83301 -177 -26.5s-104.334 -49.834 -155.001 -96.501v199c45.333 38 100 65.167 164 81.5s127.333 24.5 190 24.5
c84.667 0 156 -10.167 214 -30.5s104.833 -48.166 140.5 -83.499s61.334 -76.666 77.001 -123.999s23.5 -97 23.5 -149c0 -86 -24.167 -158.333 -72.5 -217s-113.5 -101 -195.5 -127v-18c121.333 -27.333 206.666 -74.833 255.999 -142.5s74 -148.5 74 -242.5
c0 -61.333 -9.66699 -119 -29 -173s-50.166 -100.833 -92.499 -140.5s-97.333 -71 -165 -94s-149.834 -34.5 -246.501 -34.5c-68 0 -133.833 6.33301 -197.5 19s-119.5 31.334 -167.5 56.001z" />
    <glyph glyph-name="afii10026" unicode="&#x418;" horiz-adv-x="1396" 
d="M162 0v1536h207v-1145h18l647 1145h201v-1536h-207v1155h-18l-648 -1155h-200z" />
    <glyph glyph-name="afii10027" unicode="&#x419;" horiz-adv-x="1396" 
d="M162 0v1536h207v-1145h18l647 1145h201v-1536h-207v1155h-18l-648 -1155h-200zM385 1870l169.998 -0.00195312c0 -19.333 2.33301 -38.166 7 -56.499s12.834 -34.666 24.501 -48.999s27.5 -26 47.5 -35s45 -13.5 75 -13.5c57.333 0 97.5 15.667 120.5 47
s34.5 67 34.5 107h170c0 -52 -8.16699 -96.5 -24.5 -133.5s-39.166 -67.333 -68.499 -91s-63.666 -41.334 -102.999 -53.001s-82.333 -17.5 -129 -17.5c-45.333 0 -87.833 5.83301 -127.5 17.5s-73.834 29.334 -102.501 53.001s-51.5 54 -68.5 91s-25.5 81.5 -25.5 133.5z
" />
    <glyph glyph-name="afii10028" unicode="&#x41a;" horiz-adv-x="1226" 
d="M162 0v1536h207v-702l112 38l465 664h213l-504 -729l549 -807h-248l-479 686l-108 -37v-649h-207z" />
    <glyph glyph-name="afii10029" unicode="&#x41b;" horiz-adv-x="1302" 
d="M25 0l-0.00195312 192.999c2.66699 0 9.33398 -1.16699 20.001 -3.5s24.334 -3.5 41.001 -3.5c38 0 72 12.667 102 38s55.667 71.833 77 139.5s37.5 160.167 48.5 277.5s16.5 269 16.5 455v440h813v-1536h-207v1354h-422v-269c0 -160 -4.5 -307.167 -13.5 -441.5
s-27 -250.166 -54 -347.499s-65.833 -173.333 -116.5 -228s-118.334 -82 -203.001 -82c-22 0 -41.167 1.33301 -57.5 4s-31.166 6 -44.499 10z" />
    <glyph glyph-name="afii10030" unicode="&#x41c;" horiz-adv-x="1671" 
d="M162 0v1536h272l402 -1223h10l399 1223h264v-1536h-206v1227h-13l-393 -1227h-154l-393 1227h-12v-1227h-176z" />
    <glyph glyph-name="afii10031" unicode="&#x41d;" horiz-adv-x="1384" 
d="M162 0v1536h207v-659h647v659h207v-1536h-207v694h-647v-694h-207z" />
    <glyph glyph-name="afii10032" unicode="&#x41e;" horiz-adv-x="1409" 
d="M86 768c0 122.667 14.002 232.833 42.002 330.5s68.667 180.334 122 248.001s118.166 119.5 194.499 155.5s163.166 54 260.499 54c98 0 185.5 -18 262.5 -54s141.833 -87.833 194.5 -155.5s93 -150 121 -247s42 -206.833 42 -329.5s-14 -232.834 -42 -330.501
s-68.667 -180.667 -122 -249s-118.166 -120.5 -194.499 -156.5s-163.5 -54 -261.5 -54c-96.667 0 -183.334 18 -260.001 54s-141.667 88.167 -195 156.5s-94 151.333 -122 249s-42 207.167 -42 328.5zM303.002 767.999c0 -199.333 36 -350.5 108 -453.5
s170 -154.5 294 -154.5c125.333 0 223.833 51.833 295.5 155.5s107.5 255.167 107.5 454.5c0 198 -35.833 348.5 -107.5 451.5s-170.167 154.5 -295.5 154.5c-124 0 -222 -51.5 -294 -154.5s-108 -254.167 -108 -453.5z" />
    <glyph glyph-name="afii10033" unicode="&#x41f;" horiz-adv-x="1351" 
d="M162 0v1536h1028v-1536h-207v1354h-614v-1354h-207z" />
    <glyph glyph-name="afii10034" unicode="&#x420;" horiz-adv-x="1122" 
d="M162 0l0.000976562 1536h395c95.333 0 176.166 -13 242.499 -39s120 -60.5 161 -103.5s70.667 -91.833 89 -146.5s27.5 -110 27.5 -166c0 -60 -9.16699 -118.333 -27.5 -175s-48.333 -106.834 -90 -150.501s-95.667 -79.167 -162 -106.5s-146.5 -41 -240.5 -41h-188v-608
h-207zM369.001 793.001h178c94 0 169.667 23.833 227 71.5s86 120.5 86 218.5c0 87.333 -28.667 154.333 -86 201s-133 70 -227 70h-178v-561z" />
    <glyph glyph-name="afii10035" unicode="&#x421;" horiz-adv-x="1167" 
d="M86 768c0 120 15 228.831 45 326.498s73.667 180.667 131 249s127.333 120.833 210 157.5s176.667 55 282 55c24.667 0 50.5 -1 77.5 -3s53.833 -5 80.5 -9s52 -9 76 -15s45 -13.333 63 -22v-188c-68 38 -162.333 57 -283 57c-64 0 -124.333 -12.667 -181 -38
s-106.167 -63.166 -148.5 -113.499s-75.5 -113.333 -99.5 -189s-36 -164.834 -36 -267.501c0 -208.667 41.333 -362.167 124 -460.5s197 -147.5 343 -147.5c19.333 0 41.5 0.666992 66.5 2s51.5 5 79.5 11s56.333 14.833 85 26.5s56.667 27.834 84 48.501v-193
c-52 -31.333 -107.833 -51.666 -167.5 -60.999s-115.5 -14 -167.5 -14c-114.667 0 -213.667 18.333 -297 55s-152 89.167 -206 157.5s-94.333 151 -121 248s-40 206.167 -40 327.5z" />
    <glyph glyph-name="afii10036" unicode="&#x422;" horiz-adv-x="1138" 
d="M41 1354v182h1059v-182h-426v-1354h-207v1354h-426z" />
    <glyph glyph-name="afii10037" unicode="&#x423;" horiz-adv-x="1187" 
d="M16 1536h224l370 -838h13l352 838h196l-645 -1536h-196l180 430z" />
    <glyph glyph-name="afii10038" unicode="&#x424;" horiz-adv-x="1660" 
d="M68 768c0 92.667 15.333 175.503 46 248.503s74.667 135.167 132 186.5s126.5 90.666 207.5 117.999s172.167 41.666 273.5 42.999v192h207v-192c101.333 -1.33301 192.5 -16 273.5 -44s149.833 -67.667 206.5 -119s100.334 -113.5 131.001 -186.5s46 -155.833 46 -248.5
s-15.333 -175.167 -46 -247.5s-74.334 -133.833 -131.001 -184.5s-125.667 -89.667 -207 -117s-172.333 -41 -273 -41v-196h-207v196c-101.333 0 -192.5 13.667 -273.5 41s-150.167 66.666 -207.5 117.999s-101.333 113.5 -132 186.5s-46 155.167 -46 246.5zM285 768.003
c0 -61.333 9.83301 -117.999 29.5 -169.999s48.334 -96.333 86.001 -133s84.167 -65.334 139.5 -86.001s117.666 -31 186.999 -31v842c-140.667 0 -249.5 -38.167 -326.5 -114.5s-115.5 -178.833 -115.5 -307.5zM934 348.004c140.667 0 249.169 37.8301 325.502 113.497
s114.5 177.167 114.5 304.5c0 62.667 -9.83301 120.334 -29.5 173.001s-48.334 97.334 -86.001 134.001s-83.834 65.334 -138.501 86.001s-116.667 31 -186 31v-842z" />
    <glyph glyph-name="afii10039" unicode="&#x425;" horiz-adv-x="1280" 
d="M45 0l469 799l-446 737h233l334 -547l319 547h207l-420 -719l494 -817h-234l-383 629l-368 -629h-205z" />
    <glyph glyph-name="afii10040" unicode="&#x426;" horiz-adv-x="1406" 
d="M162 0v1536h207v-1354h594v1354h206v-1354h181v-499h-176l-21 317h-991z" />
    <glyph glyph-name="afii10041" unicode="&#x427;" horiz-adv-x="1247" 
d="M98 1104v431.998h207v-418c0 -65.333 6.83301 -119.833 20.5 -163.5s33.5 -78.5 59.5 -104.5s57 -44.5 93 -55.5s76.667 -16.5 122 -16.5c44 0 83.667 2.83301 119 8.5s64.666 11.834 87.999 18.501c27.333 6.66699 51.333 15.334 72 26.001v705h206v-1536h-206v655
c-23.333 -10.667 -50.666 -20 -81.999 -28c-27.333 -6.66699 -59.5 -12.834 -96.5 -18.501s-78.833 -8.5 -125.5 -8.5c-74 0 -140.167 9.5 -198.5 28.5s-108 49 -149 90s-72.833 93.333 -95.5 157s-34 139.834 -34 228.501z" />
    <glyph glyph-name="afii10042" unicode="&#x428;" horiz-adv-x="1892" 
d="M162 0v1536h207v-1354h475v1354h207v-1354h475v1354h207v-1536h-1571z" />
    <glyph glyph-name="afii10043" unicode="&#x429;" horiz-adv-x="1972" 
d="M162 0v1536h207v-1354h475v1354h207v-1354h475v1354h207v-1354h180v-499h-176l-23 317h-1552z" />
    <glyph glyph-name="afii10044" unicode="&#x42a;" horiz-adv-x="1351" 
d="M37 1354l-0.000976562 182h512v-565h211c95.333 0 177.5 -12.333 246.5 -37s125.333 -58.5 169 -101.5s75.834 -94.833 96.501 -155.5s31 -126.667 31 -198c0 -60 -10.333 -118.667 -31 -176s-53.167 -108.5 -97.5 -153.5s-101 -81.167 -170 -108.5
s-152.5 -41 -250.5 -41h-412v1354h-305zM548.999 182l199 -0.000976562c106.667 0 189.5 24.667 248.5 74s88.5 123 88.5 221c0 106.667 -30 184.834 -90 234.501s-143.333 74.5 -250 74.5h-196v-604z" />
    <glyph glyph-name="afii10045" unicode="&#x42b;" horiz-adv-x="1677" 
d="M162 0l-0.000976562 1536h207v-565h211c95.333 0 177.5 -12.333 246.5 -37s125.333 -58.5 169 -101.5s75.667 -94.833 96 -155.5s30.5 -126.667 30.5 -198c0 -60 -10.167 -118.667 -30.5 -176s-52.666 -108.5 -96.999 -153.5s-101 -81.167 -170 -108.5
s-152.833 -41 -251.5 -41h-411zM368.999 182l198 -0.000976562c106.667 0 189.667 24.667 249 74s89 123 89 221c0 106.667 -30 184.834 -90 234.501s-143.333 74.5 -250 74.5h-196v-604zM1309 -0.000976562v1536h207v-1536h-207z" />
    <glyph glyph-name="afii10046" unicode="&#x42c;" horiz-adv-x="1171" 
d="M162 0l-0.000976562 1536h207v-565h211c95.333 0 177.5 -12.333 246.5 -37s125.333 -58.5 169 -101.5s75.667 -94.833 96 -155.5s30.5 -126.667 30.5 -198c0 -60 -10.167 -118.667 -30.5 -176s-52.666 -108.5 -96.999 -153.5s-101 -81.167 -170 -108.5
s-152.833 -41 -251.5 -41h-411zM368.999 182l198 -0.000976562c106.667 0 189.667 24.667 249 74s89 123 89 221c0 106.667 -30 184.834 -90 234.501s-143.333 74.5 -250 74.5h-196v-604z" />
    <glyph glyph-name="afii10047" unicode="&#x42d;" horiz-adv-x="1155" 
d="M100 55l-0.00195312 189.001c54.667 -31.333 108.667 -53.166 162 -65.499s110.666 -18.5 171.999 -18.5c122.667 0 220.667 41.667 294 125s114 219.666 122 408.999h-518v183h516c-15.333 166.667 -61.166 291.5 -137.499 374.5s-173.166 124.5 -290.499 124.5
c-61.333 0 -116.666 -6.5 -165.999 -19.5s-98.666 -39.167 -147.999 -78.5v188c42 31.333 92.5 54.166 151.5 68.499s117.167 21.5 174.5 21.5c105.333 0 197.5 -18.333 276.5 -55s145.167 -89.167 198.5 -157.5s93.666 -151 120.999 -248s41 -205.5 41 -325.5
c0 -250 -52 -444.167 -156 -582.5s-259.667 -207.5 -467 -207.5c-66.667 0 -129 6 -187 18s-111 31 -159 57z" />
    <glyph glyph-name="afii10048" unicode="&#x42e;" horiz-adv-x="1859" 
d="M162 0v1536h207v-659h213c8 104 26.667 197.833 56 281.5s69.333 154.834 120 213.501s110.334 104 179.001 136s147.667 48 237 48c96.667 0 182.167 -18.667 256.5 -56s137.166 -90.166 188.499 -158.499s90 -151 116 -248s39 -204.833 39 -323.5
s-13.333 -226.834 -40 -324.501s-65.334 -181 -116.001 -250s-113.5 -122.167 -188.5 -159.5s-160.167 -56 -255.5 -56c-90 0 -171.333 17 -244 51s-134.167 82 -184.5 144s-90.166 137 -119.499 225s-46.333 186 -51 294h-206v-694h-207zM793 767.999
c-2.66699 -195.333 30.833 -344.5 100.5 -447.5s163.167 -154.5 280.5 -154.5c120 0 213 51.833 279 155.5s100.333 253.167 103 448.5c2.66699 194 -30.333 342.5 -99 445.5s-163 154.5 -283 154.5c-117.333 0 -209.5 -51.167 -276.5 -153.5
s-101.833 -251.833 -104.5 -448.5z" />
    <glyph glyph-name="afii10049" unicode="&#x42f;" horiz-adv-x="1187" 
d="M31 0l412.999 669.998c-56 15.333 -104 36.833 -144 64.5s-73.333 60.334 -100 98.001s-46.5 78.334 -59.5 122.001s-19.5 89.5 -19.5 137.5c0 56 8.83301 110.5 26.5 163.5s47.334 100.333 89.001 142s96.667 75.167 165 100.5s153.5 38 255.5 38h396v-1536h-207v629
h-187l-387 -629h-241zM337.999 1085c0 -90 29 -157.833 87 -203.5s136 -68.5 234 -68.5h187v541h-191c-96.667 0 -173.667 -22.833 -231 -68.5s-86 -112.5 -86 -200.5z" />
    <glyph glyph-name="afii10065" unicode="&#x430;" horiz-adv-x="1062" 
d="M96 270c0 58.667 11.666 109.833 34.999 153.5s60.5 79.167 111.5 106.5s116.833 47.833 197.5 61.5s178.334 20.5 293.001 20.5v47c0 74 -21.167 129.833 -63.5 167.5s-104.5 56.5 -186.5 56.5c-57.333 0 -112.5 -6.83301 -165.5 -20.5s-105.5 -37.5 -157.5 -71.5v184
c48 28.667 104 48.5 168 59.5s124.667 16.5 182 16.5c144.667 0 250.834 -34.5 318.501 -103.5s101.5 -165.833 101.5 -290.5v-657h-187v162h-14c-32.667 -57.333 -72.834 -102 -120.501 -134s-114.5 -48 -200.5 -48c-104 0 -182 27.167 -234 81.5s-78 123.833 -78 208.5z
M302.999 292.999c0 -44 13.3311 -80.333 39.998 -109s72.667 -43 138 -43c31.333 0 62 5.83301 92 17.5s57 29.5 81 53.5s43.167 54 57.5 90s21.5 78.667 21.5 128v55c-79.333 0 -146.166 -3.33301 -200.499 -10s-98.666 -17.5 -132.999 -32.5s-59 -34.833 -74 -59.5
s-22.5 -54.667 -22.5 -90z" />
    <glyph glyph-name="afii10066" unicode="&#x431;" horiz-adv-x="1138" 
d="M76 641c0 157.333 13.3301 290.498 39.9971 399.498s67.667 198.333 123 268s126 122.334 212 158.001s189 57.5 309 65.5c72.667 4 127 8 163 12s59.333 7.33301 70 10v-186c-10.667 -2.66699 -34.834 -6.33398 -72.501 -11.001s-87.834 -8.33398 -150.501 -11.001
c-88.667 -6.66699 -165.5 -20.667 -230.5 -42s-119 -54.166 -162 -98.499s-75.333 -101.666 -97 -171.999s-34.5 -157.5 -38.5 -261.5h14c20.667 74 62.334 133.167 125.001 177.5s143.334 66.5 242.001 66.5c62.667 0 121 -11.667 175 -35s100.667 -56.833 140 -100.5
s70.333 -97.167 93 -160.5s34 -134.666 34 -213.999c0 -82 -12.667 -155.5 -38 -220.5s-60.166 -120 -104.499 -165s-96.666 -79.667 -156.999 -104s-125.166 -36.5 -194.499 -36.5c-64 0 -126 9.83301 -186 29.5s-112.833 54.667 -158.5 105s-82.167 117.833 -109.5 202.5
s-41 192.667 -41 324zM284.997 503.998c0 -116 27.167 -203.664 81.5 -262.997s122.5 -89 204.5 -89c40.667 0 78.5 7.83301 113.5 23.5s65.167 38.167 90.5 67.5s45.5 66.166 60.5 110.499s22.5 95.166 22.5 152.499s-7.5 107.166 -22.5 149.499
s-35.167 77.833 -60.5 106.5s-55.333 50.167 -90 64.5s-72.667 21.5 -114 21.5c-82 0 -150.167 -28.667 -204.5 -86s-81.5 -143.333 -81.5 -258z" />
    <glyph glyph-name="afii10067" unicode="&#x432;" horiz-adv-x="1026" 
d="M145 0v1030h324c86 0 157 -6.83301 213 -20.5s101 -32 135 -55s57.833 -50 71.5 -81s20.5 -64.167 20.5 -99.5c0 -64 -17.667 -114.5 -53 -151.5s-85.666 -61.5 -150.999 -73.5v-14c83.333 -12 145.666 -39.667 186.999 -83s62 -94.333 62 -153
c0 -40.667 -7.16699 -79.167 -21.5 -115.5s-38.5 -68.166 -72.5 -95.499s-78.333 -48.833 -133 -64.5s-121.667 -23.5 -201 -23.5h-381zM342 146.999l176 -0.000976562c74 0 130.833 13.333 170.5 40s59.5 64 59.5 112c0 54.667 -20.167 94.334 -60.5 119.001
s-96.833 37 -169.5 37h-176v-308zM342 595.998h133c84.667 0 143.667 13.667 177 41s50 65 50 113c0 39.333 -18 71 -54 95s-93.667 36 -173 36h-133v-285z" />
    <glyph glyph-name="afii10068" unicode="&#x433;" horiz-adv-x="796" 
d="M145 0v1030h633v-170h-436v-860h-197z" />
    <glyph glyph-name="afii10069" unicode="&#x434;" horiz-adv-x="1181" 
d="M25 170h100c26 32.667 48.833 72.5 68.5 119.5s36 104.333 49 172s23 148 30 241s10.5 202.167 10.5 327.5h680v-860h174v-440h-166l-21 270h-739l-21 -270h-165v440zM315 170h448.999v690h-320c0 -66.667 -2 -133.167 -6 -199.5s-11.167 -129.833 -21.5 -190.5
s-23.666 -116.667 -39.999 -168s-36.833 -95.333 -61.5 -132z" />
    <glyph glyph-name="afii10070" unicode="&#x435;" 
d="M76 512c0 84.667 11.5 160.498 34.5 227.498s55 123.333 96 169s90.167 80.834 147.5 105.501s121 37 191 37c60 0 116 -8.66699 168 -26s96.667 -43.333 134 -78s67 -78.667 89 -132s33 -115.333 33 -186c0 -27.333 -1.33301 -52.666 -4 -75.999
s-5.66699 -40.333 -9 -51h-667c-1.33301 -117.333 26.667 -205 84 -263s137 -87 239 -87c61.333 0 119.333 7.5 174 22.5s104 40.167 148 75.5v-182c-34 -27.333 -81.333 -48.833 -142 -64.5s-128.667 -23.5 -204 -23.5c-160 0 -285.333 43.667 -376 131s-136 221 -136 401z
M287 636.998l485.002 -0.000976562c-2.66699 48 -10.834 88.333 -24.501 121s-31.334 58.834 -53.001 78.501s-46.167 34 -73.5 43s-56 13.5 -86 13.5c-65.333 0 -120 -20.5 -164 -61.5s-72 -105.833 -84 -194.5z" />
    <glyph glyph-name="afii10072" unicode="&#x436;" horiz-adv-x="1474" 
d="M16 0l385 551l-376 479h200l340 -428l74 -18v446h197v-446l69 18l340 428h193l-369 -471l389 -559h-239l-316 449l-67 -19v-430h-197v430l-74 21l-317 -451h-232z" />
    <glyph glyph-name="afii10073" unicode="&#x437;" horiz-adv-x="899" 
d="M80 51l-0.000976562 179.999c52 -31.333 104.833 -54.5 158.5 -69.5s107.834 -22.5 162.501 -22.5c74 0 127.667 14.333 161 43s50 67.667 50 117c0 30 -6.16699 54.5 -18.5 73.5s-28.666 34 -48.999 45s-43.833 19 -70.5 24s-55 7.5 -85 7.5h-158v157h158
c65.333 0 112.666 13.667 141.999 41s44 63 44 107c0 91.333 -67.333 137 -202 137c-52 0 -99.833 -6.16699 -143.5 -18.5s-86.834 -31.5 -129.501 -57.5v176c40.667 19.333 87 34.166 139 44.499s102.667 15.5 152 15.5c70.667 0 130.667 -7.16699 180 -21.5
s89.333 -33.833 120 -58.5s52.5 -53 65.5 -85s19.5 -65.333 19.5 -100c0 -53.333 -15.667 -100.666 -47 -141.999s-86.666 -71.666 -165.999 -90.999v-14c90 -16.667 154.167 -47.5 192.5 -92.5s57.5 -98.167 57.5 -159.5c0 -39.333 -6.16699 -77.5 -18.5 -114.5
s-34.166 -69.833 -65.499 -98.5s-73.666 -51.5 -126.999 -68.5s-121 -25.5 -203 -25.5c-50.667 0 -105.334 5.33301 -164.001 16s-110.334 29 -155.001 55z" />
    <glyph glyph-name="afii10074" unicode="&#x438;" horiz-adv-x="1122" 
d="M145 0v1030h197v-706h14l449 706h174v-1030h-197v709h-16l-449 -709h-172z" />
    <glyph glyph-name="afii10075" unicode="&#x439;" horiz-adv-x="1122" 
d="M145 0v1030h197v-706h14l449 706h174v-1030h-197v709h-16l-449 -709h-172zM240 1481l173.996 0.00195312c0 -44 10.5 -81.667 31.5 -113s60.167 -47 117.5 -47c56 0 95 15.667 117 47s33 69 33 113h174c0 -54.667 -8.16699 -101.834 -24.5 -141.501
s-39.166 -72.167 -68.499 -97.5s-63.833 -43.833 -103.5 -55.5s-82.167 -17.5 -127.5 -17.5s-87.666 6.16699 -126.999 18.5s-73.666 31.166 -102.999 56.499s-52.166 57.5 -68.499 96.5s-24.5 85.833 -24.5 140.5z" />
    <glyph glyph-name="afii10076" unicode="&#x43a;" horiz-adv-x="997" 
d="M145 0v1030h197v-444l84 18l326 426h194l-356 -469l391 -561h-240l-315 449l-84 -23v-426h-197z" />
    <glyph glyph-name="afii10077" unicode="&#x43b;" horiz-adv-x="1089" 
d="M39 -6v183.998c4 -1.33301 8.66699 -2.66602 14 -3.99902c4 -1.33301 8.83301 -2 14.5 -2h16.5c42 0 75.667 22.167 101 66.5s44.833 105.5 58.5 183.5s22.167 169.167 25.5 273.5s5 215.833 5 334.5h672v-1030h-196v860h-308c0 -113.333 -3.66699 -222.5 -11 -327.5
s-23 -198.167 -47 -279.5s-57.333 -146.166 -100 -194.499s-100.334 -72.5 -173.001 -72.5c-10.667 0 -20.167 0.333008 -28.5 1s-16.166 1.66699 -23.499 3z" />
    <glyph glyph-name="afii10078" unicode="&#x43c;" horiz-adv-x="1441" 
d="M145 0v1030h279l291 -782h8l293 782h274v-1030h-196v799h-17l-297 -799h-155l-295 799h-17v-799h-168z" />
    <glyph glyph-name="afii10079" unicode="&#x43d;" horiz-adv-x="1122" 
d="M145 0v1030h197v-414h440v414h197v-1030h-197v446h-440v-446h-197z" />
    <glyph glyph-name="afii10080" unicode="&#x43e;" horiz-adv-x="1114" 
d="M76 512c0 84.667 11.833 160.499 35.5 227.499s57 123.333 100 169s94 80.834 153 105.501s123.167 37 192.5 37c66.667 0 129.5 -12 188.5 -36s110.333 -59.167 154 -105.5s77.667 -102.666 102 -168.999s36.5 -141.833 36.5 -226.5s-12.167 -160.167 -36.5 -226.5
s-58 -122.333 -101 -168s-94 -80.334 -153 -104.001s-122.5 -35.5 -190.5 -35.5c-69.333 0 -133.5 11.833 -192.5 35.5s-110 58 -153 103s-76.333 100.667 -100 167s-35.5 141.833 -35.5 226.5zM283 511.999c0 -64 7.16602 -118.501 21.499 -163.501
s33.666 -82.167 57.999 -111.5s53.333 -50.833 87 -64.5s69.5 -20.5 107.5 -20.5c36.667 0 71.834 6.83301 105.501 20.5s63 35.5 88 65.5s44.667 67.5 59 112.5s21.5 99.5 21.5 163.5c0 62.667 -7.5 117.334 -22.5 164.001s-35 84.667 -60 114s-54 51.166 -87 65.499
s-67.833 21.5 -104.5 21.5c-38 0 -73.833 -7.16699 -107.5 -21.5s-62.667 -36.166 -87 -65.499s-43.666 -67.333 -57.999 -114s-21.5 -102 -21.5 -166z" />
    <glyph glyph-name="afii10081" unicode="&#x43f;" horiz-adv-x="1101" 
d="M145 0v1030h813v-1030h-196v860h-420v-860h-197z" />
    <glyph glyph-name="afii10082" unicode="&#x440;" horiz-adv-x="1177" 
d="M145 -512l-0.00195312 1542h187v-145h14c28.667 48 69.334 87.667 122.001 119s120.667 47 204 47c62.667 0 120.334 -12.667 173.001 -38s98 -60.833 136 -106.5s67.667 -101.334 89 -167.001s32 -139.5 32 -221.5c0 -84.667 -10.667 -160.5 -32 -227.5
s-51 -123.667 -89 -170s-83.667 -81.333 -137 -105s-111.333 -35.5 -174 -35.5c-75.333 0 -140 14.667 -194 44s-97.333 69 -130 119h-14l10 -163v-492h-197zM341.998 455.001c0 -50.667 7.16602 -94.833 21.499 -132.5s33.833 -69.167 58.5 -94.5s53.667 -44.333 87 -57
s68.333 -19 105 -19s72.167 6.83301 106.5 20.5s64.5 35.5 90.5 65.5s46.5 67.833 61.5 113.5s22.5 101.167 22.5 166.5c0 62.667 -7.5 117 -22.5 163s-35.5 83.667 -61.5 113s-56 50.833 -90 64.5s-70.333 20.5 -109 20.5c-79.333 0 -144.166 -23.333 -194.499 -70
s-75.5 -117 -75.5 -211v-143z" />
    <glyph glyph-name="afii10083" unicode="&#x441;" horiz-adv-x="915" 
d="M76 512c0 84.667 12.667 160.5 38 227.5s59.833 123.333 103.5 169s95.834 80.834 156.501 105.501s126.334 37 197.001 37c60 0 110.167 -4.5 150.5 -13.5s76.166 -21.833 107.499 -38.5v-190c-35.333 26 -74.833 43.333 -118.5 52s-83.834 13 -120.501 13
c-44 0 -84.667 -7.16699 -122 -21.5s-69.666 -36.5 -96.999 -66.5s-48.833 -67.833 -64.5 -113.5s-23.5 -99.167 -23.5 -160.5c0 -62.667 7.83301 -116.5 23.5 -161.5s37.167 -81.833 64.5 -110.5s60.333 -49.834 99 -63.501s82 -20.5 130 -20.5
c105.333 0 186.666 24.333 243.999 73v-194c-22 -12 -54.5 -24.167 -97.5 -36.5s-99.167 -18.5 -168.5 -18.5c-160 0 -283.667 46 -371 138s-131 223.333 -131 394z" />
    <glyph glyph-name="afii10084" unicode="&#x442;" horiz-adv-x="843" 
d="M20 860v170h803v-170h-303v-860h-196v860h-304z" />
    <glyph glyph-name="afii10085" unicode="&#x443;" horiz-adv-x="978" 
d="M4 1030h209l289 -758h18l268 758h187l-555 -1542h-187l181 500z" />
    <glyph glyph-name="afii10086" unicode="&#x444;" horiz-adv-x="1400" 
d="M66 512c0 78 11.832 150 35.499 216s58.334 122.667 104.001 170s101.667 84.333 168 111s142.5 40 228.5 40v487h197v-487c86 -2.66699 162.333 -17 229 -43s122.667 -62.333 168 -109s79.833 -102 103.5 -166s35.5 -134.333 35.5 -211
c0 -79.333 -11.833 -151.666 -35.5 -216.999s-58.5 -122 -104.5 -170s-102 -85.167 -168 -111.5s-142 -39.5 -228 -39.5v-494h-197v494c-86 1.33301 -162.5 15.166 -229.5 41.499s-123 62.833 -168 109.5s-79.333 102 -103 166s-35.5 135 -35.5 213zM271.999 512
c0 -116 28.332 -206.5 84.999 -271.5s138.334 -98.833 245.001 -101.5v752c-108 -1.33301 -190 -35.833 -246 -103.5s-84 -159.5 -84 -275.5zM798.998 139c108 1.33301 189.833 36.167 245.5 104.5s83.5 160.5 83.5 276.5s-28.333 206.167 -85 270.5s-138 97.833 -244 100.5
v-752z" />
    <glyph glyph-name="afii10087" unicode="&#x445;" horiz-adv-x="1028" 
d="M55 1030h232l241 -371l240 371h195l-334 -502l360 -528h-233l-250 383l-248 -383h-195l343 514z" />
    <glyph glyph-name="afii10088" unicode="&#x446;" horiz-adv-x="1171" 
d="M145 0v1030h197v-860h414v860h196v-860h174v-446h-165l-21 276h-795z" />
    <glyph glyph-name="afii10089" unicode="&#x447;" horiz-adv-x="1034" 
d="M90 754l-0.000976562 276h197v-274c0 -74 17.667 -128 53 -162s92 -51 170 -51c27.333 0 58 2.33301 92 7s64.667 14 92 28v452h197v-1030h-197v408c-27.333 -10.667 -57.666 -19.5 -90.999 -26.5s-78 -10.5 -134 -10.5c-128.667 0 -224 31 -286 93s-93 158.667 -93 290z
" />
    <glyph glyph-name="afii10090" unicode="&#x448;" horiz-adv-x="1564" 
d="M145 0v1030h197v-860h342v860h197v-860h342v860h196v-1030h-1274z" />
    <glyph glyph-name="afii10091" unicode="&#x449;" horiz-adv-x="1640" 
d="M145 0v1030h197v-860h342v860h197v-860h342v860h196v-860h174v-446h-166l-20 276h-1262z" />
    <glyph glyph-name="afii10092" unicode="&#x44a;" horiz-adv-x="1067" 
d="M16 860v170h428v-344h138c86 0 157.667 -9.5 215 -28.5s103.333 -44.167 138 -75.5s59.167 -67.5 73.5 -108.5s21.5 -82.833 21.5 -125.5c0 -44 -7.16699 -86.667 -21.5 -128s-38.833 -78.5 -73.5 -111.5s-80.667 -59.333 -138 -79s-129 -29.5 -215 -29.5h-334v860h-232z
M444 160l156 0.000976562c75.333 0 131.333 16.667 168 50s55 78.666 55 135.999c0 54.667 -18.333 98 -55 130s-92.667 48 -168 48h-156v-364z" />
    <glyph glyph-name="afii10093" unicode="&#x44b;" horiz-adv-x="1392" 
d="M145 0v1030h197v-344h137c86 0 157.667 -9.5 215 -28.5s103.5 -44.167 138.5 -75.5s59.667 -67.5 74 -108.5s21.5 -82.833 21.5 -125.5c0 -44 -7.16699 -86.667 -21.5 -128s-39 -78.5 -74 -111.5s-81.167 -59.333 -138.5 -79s-129 -29.5 -215 -29.5h-334zM342 160
l156 0.000976562c75.333 0 131.333 16.667 168 50s55 78.666 55 135.999c0 54.667 -18.5 98 -55.5 130s-92.833 48 -167.5 48h-156v-364zM1053 0.000976562v1030h196v-1030h-196z" />
    <glyph glyph-name="afii10094" unicode="&#x44c;" horiz-adv-x="964" 
d="M145 0v1030h197v-344h137c86 0 157.667 -9.5 215 -28.5s103.5 -44.167 138.5 -75.5s59.667 -67.5 74 -108.5s21.5 -82.833 21.5 -125.5c0 -44 -7.16699 -86.667 -21.5 -128s-39 -78.5 -74 -111.5s-81.167 -59.333 -138.5 -79s-129 -29.5 -215 -29.5h-334zM342 160
l156 0.000976562c75.333 0 131.333 16.667 168 50s55 78.666 55 135.999c0 54.667 -18.5 98 -55.5 130s-92.833 48 -167.5 48h-156v-364z" />
    <glyph glyph-name="afii10095" unicode="&#x44d;" horiz-adv-x="917" 
d="M72 39v189.998c27.333 -24.667 62.5 -44 105.5 -58s93.167 -21 150.5 -21c90 0 160.167 24.167 210.5 72.5s81.166 125.833 92.499 232.5h-377v149h377c-10.667 94 -42.667 163.667 -96 209s-121.666 68 -204.999 68c-36.667 0 -77.667 -4.83301 -123 -14.5
s-87 -28.167 -125 -55.5v186c27.333 15.333 62.5 28.166 105.5 38.499s97.167 15.5 162.5 15.5c72.667 0 139 -11.667 199 -35s111.833 -57.166 155.5 -101.499s77.5 -98.666 101.5 -162.999s36 -136.5 36 -216.5c0 -173.333 -41.667 -309.166 -125 -407.499
s-208.333 -147.5 -375 -147.5c-72.667 0 -130.167 6 -172.5 18s-74.833 25.667 -97.5 41z" />
    <glyph glyph-name="afii10096" unicode="&#x44e;" horiz-adv-x="1503" 
d="M145 0l0.000976562 1030h197v-414h166c19.333 138 70.166 245 152.499 321s183.833 114 304.5 114c65.333 0 126.333 -12 183 -36s105.834 -59.167 147.501 -105.5s74.5 -102.666 98.5 -168.999s36 -141.833 36 -226.5s-12 -160.167 -36 -226.5
s-56.833 -122.333 -98.5 -168s-90.834 -80.334 -147.501 -104.001s-117.667 -35.5 -183 -35.5c-61.333 0 -119 10.167 -173 30.5s-101.167 50.333 -141.5 90s-73.5 88.5 -99.5 146.5s-41.667 124.333 -47 199h-162v-446h-197zM709.001 512c0 -64 6.5 -118.501 19.5 -163.501
s31 -82.167 54 -111.5s50.333 -50.833 82 -64.5s65.167 -20.5 100.5 -20.5s68.666 6.83301 99.999 20.5s58.666 35.5 81.999 65.5s41.833 67.5 55.5 112.5s20.5 99.5 20.5 163.5c0 62.667 -7.16699 117.334 -21.5 164.001s-33.166 84.667 -56.499 114
s-50.666 51.166 -81.999 65.499s-64 21.5 -98 21.5c-35.333 0 -68.833 -7.16699 -100.5 -21.5s-59 -36.166 -82 -65.499s-41 -67.333 -54 -114s-19.5 -102 -19.5 -166z" />
    <glyph glyph-name="afii10097" unicode="&#x44f;" horiz-adv-x="1030" 
d="M66 0l295.998 403.002c-82 19.333 -144.667 55 -188 107s-65 115.333 -65 190c0 39.333 7.16699 78.666 21.5 117.999s37.833 74.666 70.5 105.999s75.334 56.833 128.001 76.5s116.334 29.5 191.001 29.5h365v-1030h-197v367h-123l-272 -367h-227zM314.998 694.002
c0 -54.667 19.833 -97.667 59.5 -129s97.834 -47 174.501 -47h139v352h-139c-76.667 0 -134.834 -16.333 -174.501 -49s-59.5 -75 -59.5 -127z" />
    <glyph glyph-name="afii10071" unicode="&#x451;" 
d="M76 512c0 84.667 11.5 160.498 34.5 227.498s55 123.333 96 169s90.167 80.834 147.5 105.501s121 37 191 37c60 0 116 -8.66699 168 -26s96.667 -43.333 134 -78s67 -78.667 89 -132s33 -115.333 33 -186c0 -27.333 -1.33301 -52.666 -4 -75.999
s-5.66699 -40.333 -9 -51h-667c-1.33301 -117.333 26.667 -205 84 -263s137 -87 239 -87c61.333 0 119.333 7.5 174 22.5s104 40.167 148 75.5v-182c-34 -27.333 -81.333 -48.833 -142 -64.5s-128.667 -23.5 -204 -23.5c-160 0 -285.333 43.667 -376 131s-136 221 -136 401z
M178 1372c0 36.667 12.667 68.334 38 95.001s57.666 40 96.999 40c35.333 0 66.666 -13.333 93.999 -40s41 -58.334 41 -95.001c0 -38 -13.667 -69.667 -41 -95s-58.666 -38 -93.999 -38c-39.333 0 -71.666 12.667 -96.999 38s-38 57 -38 95zM287 636.998
l485.002 -0.000976562c-2.66699 48 -10.834 88.333 -24.501 121s-31.334 58.834 -53.001 78.501s-46.167 34 -73.5 43s-56 13.5 -86 13.5c-65.333 0 -120 -20.5 -164 -61.5s-72 -105.833 -84 -194.5zM604.002 1372c0 36.667 13.333 68.334 40 95.001s58.334 40 95.001 40
s68.334 -13.333 95.001 -40s40 -58.334 40 -95.001c0 -38 -13.333 -69.667 -40 -95s-58.334 -38 -95.001 -38s-68.334 12.667 -95.001 38s-40 57 -40 95z" />
    <glyph glyph-name="uni2000" unicode="&#x2000;" horiz-adv-x="938" 
 />
    <glyph glyph-name="uni2001" unicode="&#x2001;" horiz-adv-x="1876" 
 />
    <glyph glyph-name="uni2002" unicode="&#x2002;" horiz-adv-x="938" 
 />
    <glyph glyph-name="uni2003" unicode="&#x2003;" horiz-adv-x="1876" 
 />
    <glyph glyph-name="uni2004" unicode="&#x2004;" horiz-adv-x="625" 
 />
    <glyph glyph-name="uni2005" unicode="&#x2005;" horiz-adv-x="469" 
 />
    <glyph glyph-name="uni2006" unicode="&#x2006;" horiz-adv-x="312" 
 />
    <glyph glyph-name="uni2007" unicode="&#x2007;" horiz-adv-x="312" 
 />
    <glyph glyph-name="uni2008" unicode="&#x2008;" horiz-adv-x="234" 
 />
    <glyph glyph-name="uni2009" unicode="&#x2009;" horiz-adv-x="375" 
 />
    <glyph glyph-name="uni200A" unicode="&#x200a;" horiz-adv-x="104" 
 />
    <glyph glyph-name="uni2010" unicode="&#x2010;" horiz-adv-x="778" 
d="M88 516v150h602v-150h-602z" />
    <glyph glyph-name="uni2011" unicode="&#x2011;" horiz-adv-x="778" 
d="M88 516v150h602v-150h-602z" />
    <glyph glyph-name="figuredash" unicode="&#x2012;" horiz-adv-x="778" 
d="M88 516v150h602v-150h-602z" />
    <glyph glyph-name="endash" unicode="&#x2013;" horiz-adv-x="1310" 
d="M88 516v150h1135v-150h-1135z" />
    <glyph glyph-name="emdash" unicode="&#x2014;" horiz-adv-x="1720" 
d="M88 516v150h1544v-150h-1544z" />
    <glyph glyph-name="quoteleft" unicode="&#x2018;" horiz-adv-x="522" 
d="M124 1171c-0.666992 27.333 4.33398 55.999 15.001 85.999l107 299h122l-79 -254c35.333 -5.33301 62.5 -20.166 81.5 -44.499s28.5 -54.5 28.5 -90.5c0 -38 -13.333 -70.333 -40 -97s-59.667 -40 -99 -40c-28.667 0 -53.334 6.16699 -74.001 18.5s-36 29 -46 50
s-15.333 45.167 -16 72.5z" />
    <glyph glyph-name="quoteright" unicode="&#x2019;" horiz-adv-x="522" 
d="M123 1420c0 38 13.332 70.334 39.999 97.001s59.667 40 99 40c28.667 0 53.334 -6.16699 74.001 -18.5s36 -29 46 -50s15.333 -45.167 16 -72.5s-4.33301 -56 -15 -86l-107 -299h-122l79 254c-35.333 5.33301 -62.5 20.166 -81.5 44.499s-28.5 54.5 -28.5 90.5z" />
    <glyph glyph-name="quotesinglbase" unicode="&#x201a;" horiz-adv-x="522" 
d="M123 115c0 38 13.332 70.334 39.999 97.001s59.667 40 99 40c28.667 0 53.334 -6.16699 74.001 -18.5s36 -29 46 -50s15.333 -45.167 16 -72.5s-4.33301 -56 -15 -86l-107 -299h-122l79 254c-35.333 5.33301 -62.5 20.166 -81.5 44.499s-28.5 54.5 -28.5 90.5z" />
    <glyph glyph-name="quotedblleft" unicode="&#x201c;" horiz-adv-x="878" 
d="M124 1171c-0.666992 27.333 4.33398 55.999 15.001 85.999l107 299h122l-79 -254c35.333 -5.33301 62.5 -20.166 81.5 -44.499s28.5 -54.5 28.5 -90.5c0 -38 -13.333 -70.333 -40 -97s-59.667 -40 -99 -40c-28.667 0 -53.334 6.16699 -74.001 18.5s-36 29 -46 50
s-15.333 45.167 -16 72.5zM481.001 1171c-0.666992 27.333 4.33398 55.999 15.001 85.999l107 299h122l-79 -254c35.333 -5.33301 62.5 -20.166 81.5 -44.499s28.5 -54.5 28.5 -90.5c0 -38 -13.333 -70.333 -40 -97s-59.667 -40 -99 -40
c-28.667 0 -53.334 6.16699 -74.001 18.5s-36 29 -46 50s-15.333 45.167 -16 72.5z" />
    <glyph glyph-name="quotedblright" unicode="&#x201d;" horiz-adv-x="878" 
d="M123 1420c0 38 13.332 70.334 39.999 97.001s59.667 40 99 40c28.667 0 53.334 -6.16699 74.001 -18.5s36 -29 46 -50s15.333 -45.167 16 -72.5s-4.33301 -56 -15 -86l-107 -299h-122l79 254c-35.333 5.33301 -62.5 20.166 -81.5 44.499s-28.5 54.5 -28.5 90.5z
M480.999 1420c0 38 13.332 70.334 39.999 97.001s59.667 40 99 40c28.667 0 53.334 -6.16699 74.001 -18.5s36 -29 46 -50s15.333 -45.167 16 -72.5s-4.33301 -56 -15 -86l-107 -299h-122l79 254c-35.333 5.33301 -62.5 20.166 -81.5 44.499s-28.5 54.5 -28.5 90.5z" />
    <glyph glyph-name="quotedblbase" unicode="&#x201e;" horiz-adv-x="878" 
d="M123 115c0 38 13.332 70.334 39.999 97.001s59.667 40 99 40c28.667 0 53.334 -6.16699 74.001 -18.5s36 -29 46 -50s15.333 -45.167 16 -72.5s-4.33301 -56 -15 -86l-107 -299h-122l79 254c-35.333 5.33301 -62.5 20.166 -81.5 44.499s-28.5 54.5 -28.5 90.5z
M480.999 115.001c0 38 13.332 70.334 39.999 97.001s59.667 40 99 40c28.667 0 53.334 -6.16699 74.001 -18.5s36 -29 46 -50s15.333 -45.167 16 -72.5s-4.33301 -56 -15 -86l-107 -299h-122l79 254c-35.333 5.33301 -62.5 20.166 -81.5 44.499s-28.5 54.5 -28.5 90.5z" />
    <glyph glyph-name="bullet" unicode="&#x2022;" horiz-adv-x="620" 
d="M113 610c0 56 19 102.833 57 140.5s85 56.5 141 56.5c54.667 0 101.167 -18.833 139.5 -56.5s57.5 -84.5 57.5 -140.5c0 -54.667 -19.167 -101 -57.5 -139s-84.833 -57 -139.5 -57c-56 0 -103 19 -141 57s-57 84.333 -57 139z" />
    <glyph glyph-name="ellipsis" unicode="&#x2026;" horiz-adv-x="1316" 
d="M123 115c0 38 13.333 70.333 40 97s59.667 40 99 40c36.667 0 68.667 -13.333 96 -40s41 -59 41 -97c0 -39.333 -13.667 -72.5 -41 -99.5s-59.333 -40.5 -96 -40.5c-39.333 0 -72.333 13.333 -99 40s-40 60 -40 100zM520 115c0 38 13.333 70.333 40 97s59.667 40 99 40
c36.667 0 68.667 -13.333 96 -40s41 -59 41 -97c0 -39.333 -13.667 -72.5 -41 -99.5s-59.333 -40.5 -96 -40.5c-39.333 0 -72.333 13.333 -99 40s-40 60 -40 100zM916 115c0 38 13.333 70.333 40 97s59.667 40 99 40c36.667 0 68.667 -13.333 96 -40s41 -59 41 -97
c0 -39.333 -13.667 -72.5 -41 -99.5s-59.333 -40.5 -96 -40.5c-39.333 0 -72.333 13.333 -99 40s-40 60 -40 100z" />
    <glyph glyph-name="uni202F" unicode="&#x202f;" horiz-adv-x="375" 
 />
    <glyph glyph-name="guilsinglleft" unicode="&#x2039;" horiz-adv-x="548" 
d="M33 500v110l440 394v-218l-262 -231l264 -229v-220z" />
    <glyph glyph-name="guilsinglright" unicode="&#x203a;" horiz-adv-x="548" 
d="M74 784v220l442 -394v-110l-440 -394v218l264 229z" />
    <glyph glyph-name="uni205F" unicode="&#x205f;" horiz-adv-x="469" 
 />
    <glyph glyph-name="Euro" unicode="&#x20ac;" horiz-adv-x="1341" 
d="M55 537l68.001 158.996h139c-1.33301 10.667 -2 22.334 -2 35.001v37v39.5c0 13 0.666992 26.5 2 40.5h-207l68 160h160c35.333 172 108 306.333 218 403s252.333 145 427 145c24.667 0 50.667 -1 78 -3s54.166 -5 80.499 -9s51.5 -9 75.5 -15s45 -13.333 63 -22v-188
c-68 38 -162.333 57 -283 57c-101.333 0 -191.166 -30.667 -269.499 -92s-133.833 -153.333 -166.5 -276h565l-63 -160h-529c-1.33301 -12 -2 -24.5 -2 -37.5v-42.5v-36.5c0 -12.333 0.666992 -24.166 2 -35.499h471l-63 -159h-387
c27.333 -130 79.166 -225.333 155.499 -286s172.5 -91 288.5 -91c19.333 0 41.666 0.666992 66.999 2s52 5 80 11s56.333 14.833 85 26.5s56.667 27.834 84 48.501v-193c-52 -31.333 -108.167 -51.666 -168.5 -60.999s-116.166 -14 -167.499 -14
c-190 0 -337.5 49 -442.5 147s-172.5 234.667 -202.5 410h-224z" />
    <glyph glyph-name="uni20BD" unicode="&#x20bd;" horiz-adv-x="1189" 
d="M55 326l0.000976562 161h174v150h-174v162h174v737h396c95.333 0 176.166 -12.667 242.499 -38s120 -58.833 161 -100.5s70.667 -89 89 -142s27.5 -106.833 27.5 -161.5c0 -57.333 -9.16699 -113.333 -27.5 -168s-48.333 -103.5 -90 -146.5s-95.667 -77.5 -162 -103.5
s-146.5 -39 -240.5 -39h-189v-150h479v-161h-479v-326h-207v326h-174zM436.001 799l178 0.000976562c94 0 169.833 24.167 227.5 72.5s86.5 120.166 86.5 215.499c0 86 -28.667 152 -86 198s-133.333 69 -228 69h-178v-555z" />
    <glyph glyph-name="trademark" unicode="&#x2122;" horiz-adv-x="1380" 
d="M20 1411v125h504v-125h-180v-489h-143v489h-181zM586 922v614h202l146 -428l149 428h195v-614h-143v442h-2l-156 -442h-105l-155 442h-4v-442h-127z" />
    <glyph glyph-name="uni25FC" unicode="&#x25fc;" horiz-adv-x="1034" 
d="M0 0v1034h1034v-1034h-1034z" />
  </font>
</defs>
</svg>
